<svg width="1361" height="955" viewBox="0 0 1361 955" fill="none" xmlns="http://www.w3.org/2000/svg"><path d="M1290.54 70.269c-.19 1.347-.69 2.764-1.53 4.248-.81 1.46-1.87 2.816-3.17 4.066-1.46 1.397-2.95 2.381-4.46 2.951-1.54.545-3.07.715-4.6.51-1.54-.232-3.07-.8-4.57-1.706-1.51-.906-2.99-2.124-4.46-3.655-3.13-3.266-4.78-6.452-4.96-9.559-.18-3.107 1.09-5.96 3.81-8.558.87-.833 1.83-1.565 2.9-2.194a7.745 7.745 0 013.37-1.171c1.2-.126 2.5.1 3.89.678 1.36.553 2.81 1.633 4.35 3.24.81.842 1.62 1.847 2.45 3.014l-12.33 11.804c1.07 1.122 2.14 2.007 3.2 2.654 1.07.647 2.13 1.044 3.2 1.19 1.05.121 2.12-.02 3.21-.424 1.08-.454 2.19-1.22 3.32-2.299.87-.833 1.59-1.82 2.17-2.96.57-1.139.88-2.121.93-2.946l3.28 1.117zm-21.34-9.06c-1.51 1.446-2.35 3.006-2.51 4.68-.14 1.648.62 3.515 2.27 5.6l9.52-9.119c-1.85-1.939-3.52-2.936-5-2.99-1.5-.08-2.92.53-4.28 1.828zM1295.82 55.233l4.59 2.645.19-.184-2.71-4.521-8.11-15.928 3.11-2.979 10.77 22.626a291.25 291.25 0 012.18 4.885c.71 1.566 1.25 3.053 1.62 4.462.37 1.409.49 2.688.36 3.836-.1 1.174-.57 2.166-1.42 2.975-.92.882-1.8 1.478-2.63 1.787l-1.99-3.156c.45-.19.83-.433 1.14-.728.72-.686 1.04-1.73.98-3.133-.05-1.378-.73-3.193-2.05-5.447L1275.8 50.63l3.54-3.383 16.48 7.987zM1326.65 35.688c-.18 1.348-.69 2.764-1.53 4.25-.81 1.46-1.87 2.815-3.17 4.065-1.46 1.397-2.95 2.381-4.46 2.952-1.54.544-3.07.714-4.59.508-1.55-.23-3.08-.8-4.58-1.705-1.51-.906-2.99-2.125-4.46-3.655-3.13-3.266-4.78-6.452-4.96-9.559-.18-3.107 1.09-5.96 3.81-8.558a15.6 15.6 0 012.9-2.194 7.745 7.745 0 013.37-1.171c1.2-.126 2.5.1 3.89.678 1.36.553 2.81 1.633 4.35 3.24.81.842 1.62 1.847 2.45 3.014l-12.33 11.804c1.08 1.122 2.14 2.007 3.2 2.654 1.07.647 2.13 1.043 3.21 1.19 1.04.121 2.11-.02 3.2-.424 1.08-.454 2.19-1.22 3.32-2.299.87-.833 1.59-1.82 2.17-2.96.57-1.139.89-2.121.93-2.946l3.28 1.116zm-21.34-9.06c-1.51 1.447-2.35 3.007-2.51 4.68-.14 1.649.62 3.516 2.27 5.601l9.52-9.119c-1.85-1.939-3.52-2.936-5-2.99-1.5-.08-2.92.53-4.28 1.828zM1327.95 66.253c.19-1.347.7-2.764 1.53-4.249.81-1.46 1.87-2.815 3.17-4.065 1.46-1.398 2.95-2.381 4.46-2.952 1.54-.545 3.07-.714 4.6-.509 1.54.231 3.07.8 4.57 1.706 1.51.906 3 2.124 4.46 3.655 3.13 3.266 4.78 6.452 4.96 9.559.18 3.106-1.09 5.959-3.8 8.557a15.68 15.68 0 01-2.91 2.195 7.745 7.745 0 01-3.37 1.171c-1.2.126-2.5-.1-3.89-.678-1.36-.553-2.81-1.633-4.35-3.24-.81-.842-1.62-1.847-2.44-3.015l12.32-11.803c-1.07-1.123-2.14-2.007-3.2-2.654-1.06-.647-2.13-1.044-3.2-1.19-1.05-.121-2.12.02-3.2.424-1.09.453-2.2 1.22-3.32 2.298-.87.834-1.6 1.82-2.18 2.96-.57 1.14-.88 2.122-.93 2.947l-3.28-1.117zm21.34 9.06c1.51-1.446 2.35-3.006 2.51-4.68.14-1.648-.62-3.515-2.27-5.6l-9.52 9.119c1.86 1.939 3.52 2.936 5 2.99 1.5.08 2.93-.53 4.28-1.829zM1322.67 81.289l-4.59-2.645-.19.184 2.71 4.521 8.11 15.928-3.11 2.979-10.77-22.626c-.76-1.667-1.49-3.295-2.18-4.885-.71-1.566-1.25-3.054-1.62-4.462-.37-1.41-.49-2.688-.36-3.837.1-1.174.57-2.165 1.42-2.974.92-.883 1.8-1.478 2.63-1.787l1.99 3.156c-.45.19-.83.433-1.14.728-.72.686-1.04 1.73-.97 3.133.04 1.377.72 3.193 2.05 5.447l26.04 11.744-3.54 3.383-16.48-7.987zM1291.84 100.833c.19-1.347.69-2.764 1.53-4.249.81-1.46 1.87-2.815 3.17-4.065 1.46-1.398 2.95-2.381 4.46-2.952 1.54-.545 3.07-.714 4.6-.509 1.54.231 3.07.8 4.57 1.706 1.51.906 2.99 2.124 4.46 3.655 3.13 3.266 4.78 6.452 4.96 9.559.18 3.106-1.09 5.959-3.81 8.557-.87.834-1.83 1.565-2.9 2.195a7.755 7.755 0 01-3.37 1.171c-1.2.126-2.5-.1-3.89-.678-1.36-.553-2.81-1.633-4.35-3.24-.81-.842-1.62-1.847-2.45-3.015l12.33-11.803c-1.07-1.123-2.14-2.007-3.2-2.654-1.06-.647-2.13-1.044-3.2-1.19-1.05-.121-2.12.02-3.21.424-1.08.453-2.19 1.22-3.31 2.298-.88.834-1.6 1.82-2.18 2.96-.57 1.14-.88 2.122-.93 2.947l-3.28-1.117zm21.34 9.06c1.51-1.446 2.35-3.006 2.51-4.679.14-1.649-.62-3.516-2.27-5.601l-9.52 9.119c1.86 1.939 3.52 2.936 5 2.99 1.5.08 2.92-.53 4.28-1.829zM803.05 289.065c-.682-.23-1.33-.345-1.944-.345-.978 0-1.751.276-2.32.827-.568.528-.921 1.205-1.057 2.031v12.052H795v-17.217h1.91l.512 2.101h.136c.432-.781.944-1.378 1.535-1.791.614-.436 1.387-.654 2.32-.654.659 0 1.398.115 2.217.344l-.58 2.652zM806.319 287.687c.864-.528 1.865-.918 3.002-1.17a16.922 16.922 0 013.616-.379c1.182 0 2.126.16 2.831.482.727.321 1.273.746 1.637 1.274a3.88 3.88 0 01.75 1.687c.137.62.205 1.24.205 1.86 0 1.377-.034 2.72-.102 4.028a70.8 70.8 0 00-.103 3.719c0 .85.034 1.653.103 2.411.068.757.193 1.458.375 2.1h-2.013l-.716-2.41h-.17a5.885 5.885 0 01-.785.964 5.27 5.27 0 01-1.091.827 7.702 7.702 0 01-1.501.585c-.569.161-1.217.241-1.945.241a6.003 6.003 0 01-2.046-.344 4.903 4.903 0 01-1.603-.965 5.002 5.002 0 01-1.092-1.549c-.25-.597-.375-1.274-.375-2.032 0-1.01.205-1.848.614-2.513a4.31 4.31 0 011.705-1.619c.751-.413 1.638-.7 2.661-.861a20.036 20.036 0 013.445-.275h.921c.318 0 .637.023.955.069.068-.689.102-1.309.102-1.86 0-1.262-.25-2.146-.75-2.651-.5-.505-1.41-.758-2.729-.758-.386 0-.807.035-1.262.103-.432.046-.887.127-1.364.241a8.951 8.951 0 00-1.331.379 6.089 6.089 0 00-1.091.482l-.853-2.066zm4.844 13.809c.637 0 1.205-.081 1.705-.242a5.645 5.645 0 001.296-.654 4.1 4.1 0 00.887-.895c.25-.321.432-.631.546-.93v-2.858a13.73 13.73 0 00-.989-.034 13.249 13.249 0 00-.955-.035c-.705 0-1.399.046-2.081.138a5.92 5.92 0 00-1.774.448c-.5.206-.909.505-1.228.895-.295.367-.443.838-.443 1.412 0 .803.284 1.469.853 1.997.568.505 1.296.758 2.183.758zM835.145 302.494c-.682.505-1.489.884-2.421 1.136a10.29 10.29 0 01-2.934.414c-1.319 0-2.433-.207-3.343-.62a6.075 6.075 0 01-2.251-1.825c-.568-.804-.989-1.756-1.262-2.858-.25-1.125-.375-2.365-.375-3.719 0-2.916.636-5.142 1.91-6.68 1.273-1.561 3.104-2.342 5.492-2.342 1.091 0 2.012.092 2.763.275a7.943 7.943 0 012.08.724l-.784 2.376a6.885 6.885 0 00-1.74-.689 7.342 7.342 0 00-2.046-.276c-3.23 0-4.844 2.204-4.844 6.612 0 .872.079 1.71.239 2.514.182.78.466 1.48.852 2.1a4.77 4.77 0 001.569 1.446c.66.368 1.467.551 2.422.551.819 0 1.547-.126 2.183-.379.66-.252 1.194-.539 1.603-.86l.887 2.1zM850.554 302.253c-.682.551-1.546.987-2.592 1.309a10.885 10.885 0 01-3.275.482c-1.296 0-2.422-.207-3.377-.62a6.236 6.236 0 01-2.353-1.825c-.614-.804-1.069-1.756-1.365-2.858-.295-1.102-.443-2.342-.443-3.719 0-2.939.648-5.177 1.944-6.715 1.296-1.538 3.15-2.307 5.56-2.307.773 0 1.546.092 2.319.275a4.96 4.96 0 012.081.965c.614.482 1.114 1.17 1.501 2.066.387.872.58 2.031.58 3.478 0 .757-.068 1.595-.205 2.513H839.98c0 1.01.102 1.906.307 2.686.205.781.523 1.446.955 1.997.432.528.989.942 1.671 1.24.705.276 1.558.413 2.559.413.773 0 1.546-.137 2.319-.413.773-.275 1.353-.597 1.74-.964l1.023 1.997zm-5.867-13.843c-1.342 0-2.422.356-3.24 1.068-.796.712-1.274 1.928-1.433 3.65h8.459c0-1.745-.329-2.961-.989-3.65-.659-.712-1.592-1.068-2.797-1.068zM866.69 302.494c-.682.505-1.489.884-2.421 1.136a10.29 10.29 0 01-2.934.414c-1.319 0-2.433-.207-3.343-.62a6.075 6.075 0 01-2.251-1.825c-.568-.804-.989-1.756-1.262-2.858-.25-1.125-.375-2.365-.375-3.719 0-2.916.637-5.142 1.91-6.68 1.273-1.561 3.104-2.342 5.492-2.342 1.091 0 2.012.092 2.763.275a7.943 7.943 0 012.08.724l-.784 2.376a6.885 6.885 0 00-1.74-.689 7.342 7.342 0 00-2.046-.276c-3.229 0-4.844 2.204-4.844 6.612 0 .872.08 1.71.239 2.514.182.78.466 1.48.853 2.1a4.75 4.75 0 001.569 1.446c.659.368 1.466.551 2.421.551.819 0 1.547-.126 2.183-.379.66-.252 1.194-.539 1.604-.86l.886 2.1zM870.176 287.687c.864-.528 1.864-.918 3.001-1.17a16.922 16.922 0 013.616-.379c1.182 0 2.126.16 2.831.482.728.321 1.273.746 1.637 1.274.387.505.637 1.067.751 1.687.136.62.204 1.24.204 1.86 0 1.377-.034 2.72-.102 4.028a71.86 71.86 0 00-.102 3.719c0 .85.034 1.653.102 2.411.068.757.193 1.458.375 2.1h-2.012l-.717-2.41h-.17a5.834 5.834 0 01-.785.964 5.244 5.244 0 01-1.091.827 7.652 7.652 0 01-1.501.585c-.568.161-1.217.241-1.944.241-.728 0-1.41-.115-2.047-.344a4.913 4.913 0 01-1.603-.965 5.002 5.002 0 01-1.092-1.549c-.25-.597-.375-1.274-.375-2.032 0-1.01.205-1.848.614-2.513a4.313 4.313 0 011.706-1.619c.75-.413 1.637-.7 2.66-.861a20.045 20.045 0 013.445-.275h.921c.319 0 .637.023.955.069.069-.689.103-1.309.103-1.86 0-1.262-.25-2.146-.751-2.651-.5-.505-1.41-.758-2.728-.758-.387 0-.808.035-1.263.103-.432.046-.886.127-1.364.241a8.905 8.905 0 00-1.33.379 6.1 6.1 0 00-1.092.482l-.852-2.066zm4.843 13.809c.637 0 1.205-.081 1.706-.242.5-.183.932-.401 1.296-.654.364-.275.659-.574.887-.895.25-.321.432-.631.545-.93v-2.858a13.73 13.73 0 00-.989-.034 13.228 13.228 0 00-.955-.035c-.705 0-1.398.046-2.081.138a5.912 5.912 0 00-1.773.448c-.501.206-.91.505-1.228.895-.296.367-.444.838-.444 1.412 0 .803.285 1.469.853 1.997.569.505 1.296.758 2.183.758zM895.42 289.065c-.682-.23-1.33-.345-1.944-.345-.978 0-1.751.276-2.32.827-.568.528-.921 1.205-1.057 2.031v12.052h-2.729v-17.217h1.91l.512 2.101h.136c.432-.781.944-1.378 1.535-1.791.614-.436 1.388-.654 2.32-.654.659 0 1.398.115 2.217.344l-.58 2.652zM803.05 323.935c-.682.23-1.33.345-1.944.345-.978 0-1.751-.276-2.32-.827-.568-.528-.921-1.205-1.057-2.031V309.37H795v17.217h1.91l.512-2.101h.136c.432.781.944 1.378 1.535 1.791.614.436 1.387.654 2.32.654.659 0 1.398-.115 2.217-.344l-.58-2.652zM806.319 325.313c.864.528 1.865.918 3.002 1.17 1.16.253 2.365.379 3.616.379 1.182 0 2.126-.16 2.831-.482.727-.321 1.273-.746 1.637-1.274a3.88 3.88 0 00.75-1.687c.137-.62.205-1.24.205-1.86 0-1.377-.034-2.72-.102-4.028a70.8 70.8 0 01-.103-3.719c0-.85.034-1.653.103-2.411.068-.757.193-1.458.375-2.1h-2.013l-.716 2.41h-.17a5.885 5.885 0 00-.785-.964 5.27 5.27 0 00-1.091-.827 7.702 7.702 0 00-1.501-.585c-.569-.161-1.217-.241-1.945-.241-.727 0-1.409.115-2.046.344a4.903 4.903 0 00-1.603.965 5.002 5.002 0 00-1.092 1.549c-.25.597-.375 1.274-.375 2.032 0 1.01.205 1.848.614 2.513a4.31 4.31 0 001.705 1.619c.751.413 1.638.7 2.661.861 1.046.183 2.194.275 3.445.275h.921c.318 0 .637-.023.955-.069.068.689.102 1.309.102 1.86 0 1.262-.25 2.146-.75 2.651-.5.505-1.41.758-2.729.758-.386 0-.807-.035-1.262-.103a10.816 10.816 0 01-1.364-.241 8.951 8.951 0 01-1.331-.379 6.089 6.089 0 01-1.091-.482l-.853 2.066zm4.844-13.809c.637 0 1.205.081 1.705.242.501.183.933.401 1.296.654a4.1 4.1 0 01.887.895c.25.321.432.631.546.93v2.858a13.73 13.73 0 01-.989.034c-.318.023-.637.035-.955.035-.705 0-1.399-.046-2.081-.138a5.92 5.92 0 01-1.774-.448 3.062 3.062 0 01-1.228-.895c-.295-.367-.443-.838-.443-1.412 0-.803.284-1.469.853-1.997.568-.505 1.296-.758 2.183-.758zM835.145 310.506c-.682-.505-1.489-.884-2.421-1.136a10.29 10.29 0 00-2.934-.414c-1.319 0-2.433.207-3.343.62a6.075 6.075 0 00-2.251 1.825c-.568.804-.989 1.756-1.262 2.858-.25 1.125-.375 2.365-.375 3.719 0 2.916.636 5.142 1.91 6.68 1.273 1.561 3.104 2.342 5.492 2.342 1.091 0 2.012-.092 2.763-.275a7.943 7.943 0 002.08-.724l-.784-2.376a6.885 6.885 0 01-1.74.689 7.342 7.342 0 01-2.046.276c-3.23 0-4.844-2.204-4.844-6.612 0-.872.079-1.71.239-2.514.182-.78.466-1.48.852-2.1a4.77 4.77 0 011.569-1.446c.66-.368 1.467-.551 2.422-.551.819 0 1.547.126 2.183.379.66.252 1.194.539 1.603.86l.887-2.1zM850.554 310.747c-.682-.551-1.546-.987-2.592-1.309a10.885 10.885 0 00-3.275-.482c-1.296 0-2.422.207-3.377.62a6.236 6.236 0 00-2.353 1.825c-.614.804-1.069 1.756-1.365 2.858-.295 1.102-.443 2.342-.443 3.719 0 2.939.648 5.177 1.944 6.715 1.296 1.538 3.15 2.307 5.56 2.307.773 0 1.546-.092 2.319-.275a4.96 4.96 0 002.081-.965c.614-.482 1.114-1.17 1.501-2.066.387-.872.58-2.031.58-3.478 0-.757-.068-1.595-.205-2.513H839.98c0-1.01.102-1.906.307-2.686.205-.781.523-1.446.955-1.997a4.386 4.386 0 011.671-1.24c.705-.276 1.558-.413 2.559-.413.773 0 1.546.137 2.319.413.773.275 1.353.597 1.74.964l1.023-1.997zm-5.867 13.843c-1.342 0-2.422-.356-3.24-1.068-.796-.712-1.274-1.928-1.433-3.65h8.459c0 1.745-.329 2.961-.989 3.65-.659.712-1.592 1.068-2.797 1.068zM866.69 310.506c-.682-.505-1.489-.884-2.421-1.136a10.29 10.29 0 00-2.934-.414c-1.319 0-2.433.207-3.343.62a6.075 6.075 0 00-2.251 1.825c-.568.804-.989 1.756-1.262 2.858-.25 1.125-.375 2.365-.375 3.719 0 2.916.637 5.142 1.91 6.68 1.273 1.561 3.104 2.342 5.492 2.342 1.091 0 2.012-.092 2.763-.275a7.943 7.943 0 002.08-.724l-.784-2.376a6.885 6.885 0 01-1.74.689 7.342 7.342 0 01-2.046.276c-3.229 0-4.844-2.204-4.844-6.612 0-.872.08-1.71.239-2.514a6.89 6.89 0 01.853-2.1 4.75 4.75 0 011.569-1.446c.659-.368 1.466-.551 2.421-.551.819 0 1.547.126 2.183.379.66.252 1.194.539 1.604.86l.886-2.1zM870.176 325.313c.864.528 1.864.918 3.001 1.17 1.16.253 2.365.379 3.616.379 1.182 0 2.126-.16 2.831-.482.728-.321 1.273-.746 1.637-1.274a3.893 3.893 0 00.751-1.687c.136-.62.204-1.24.204-1.86 0-1.377-.034-2.72-.102-4.028a71.86 71.86 0 01-.102-3.719c0-.85.034-1.653.102-2.411.068-.757.193-1.458.375-2.1h-2.012l-.717 2.41h-.17a5.834 5.834 0 00-.785-.964 5.244 5.244 0 00-1.091-.827 7.652 7.652 0 00-1.501-.585c-.568-.161-1.217-.241-1.944-.241-.728 0-1.41.115-2.047.344a4.913 4.913 0 00-1.603.965 5.002 5.002 0 00-1.092 1.549c-.25.597-.375 1.274-.375 2.032 0 1.01.205 1.848.614 2.513.41.689.978 1.229 1.706 1.619.75.413 1.637.7 2.66.861 1.046.183 2.195.275 3.445.275h.921c.319 0 .637-.023.955-.069.069.689.103 1.309.103 1.86 0 1.262-.25 2.146-.751 2.651-.5.505-1.41.758-2.728.758-.387 0-.808-.035-1.263-.103a10.848 10.848 0 01-1.364-.241 8.905 8.905 0 01-1.33-.379 6.1 6.1 0 01-1.092-.482l-.852 2.066zm4.843-13.809c.637 0 1.205.081 1.706.242.5.183.932.401 1.296.654.364.275.659.574.887.895.25.321.432.631.545.93v2.858a13.73 13.73 0 01-.989.034c-.318.023-.636.035-.955.035-.705 0-1.398-.046-2.081-.138a5.912 5.912 0 01-1.773-.448 3.048 3.048 0 01-1.228-.895c-.296-.367-.444-.838-.444-1.412 0-.803.285-1.469.853-1.997.569-.505 1.296-.758 2.183-.758zM895.42 323.935c-.682.23-1.33.345-1.944.345-.978 0-1.751-.276-2.32-.827-.568-.528-.921-1.205-1.057-2.031V309.37h-2.729v17.217h1.91l.512-2.101h.136c.432.781.944 1.378 1.535 1.791.614.436 1.388.654 2.32.654.659 0 1.398-.115 2.217-.344l-.58-2.652zM1184.37 167.514l2.71-4.135c.49-.755.75-1.393.77-1.916.05-.526-.22-.979-.8-1.359-.52-.336-1.04-.474-1.56-.415-.5.055-.96.247-1.37.574l-3.25 4.962-1.16-.76 4.75-7.254.81.531-.36 1.028.06.038c.44-.158.91-.206 1.42-.147.53.057 1.07.262 1.61.617.4.26.71.536.95.829.24.283.38.604.43.963.05.365-.01.778-.17 1.238-.15.456-.42.984-.81 1.584l-2.87 4.382-1.16-.76zM1193.32 172.546c-.44.042-.93-.015-1.46-.171a5.728 5.728 0 01-1.53-.709c-.55-.36-.97-.761-1.26-1.201a3.17 3.17 0 01-.5-1.424c-.04-.51.03-1.038.21-1.585.18-.546.46-1.11.84-1.69.81-1.238 1.7-2.001 2.68-2.288.97-.287 1.97-.095 3 .576.33.215.63.469.91.762.28.283.49.611.62.986.12.374.15.803.06 1.288-.07.475-.31 1.018-.71 1.627-.21.319-.47.653-.78 1.002l-4.66-3.049a5.77 5.77 0 00-.61 1.218c-.12.385-.17.755-.14 1.107.04.343.16.672.37.988.22.312.55.608.97.886.33.215.7.373 1.1.472.41.099.74.125 1.01.078l-.12 1.127zm1.33-7.467c-.57-.373-1.13-.524-1.68-.452-.53.078-1.07.458-1.61 1.139l3.6 2.355c.48-.735.67-1.339.58-1.813-.08-.484-.38-.893-.89-1.229zM1198.75 172.633l-.5 1.644.01.01 1.29-1.17 4.39-3.158 1.24.816-7.94 5.392-.49-.323 1.7-9.476 1.34.874-1.04 5.391zM1207.21 181.635c-.44.042-.93-.015-1.46-.17a5.485 5.485 0 01-1.53-.709c-.55-.361-.97-.761-1.27-1.202a3.15 3.15 0 01-.49-1.424c-.04-.509.03-1.037.2-1.584.18-.547.46-1.11.84-1.691.81-1.238 1.71-2 2.68-2.287.98-.288 1.98-.096 3 .576.33.215.63.469.91.761.29.283.49.612.62.986s.15.804.07 1.288c-.08.476-.31 1.018-.71 1.627-.21.32-.47.654-.78 1.003l-4.66-3.049c-.28.425-.48.831-.61 1.217-.13.386-.18.755-.14 1.108.03.342.16.672.36.987.23.313.55.608.98.887.33.215.69.372 1.1.471.4.1.74.126 1.01.079l-.12 1.126zm1.32-7.466c-.57-.374-1.13-.525-1.67-.453-.54.078-1.07.458-1.62 1.139l3.6 2.356c.48-.735.68-1.34.59-1.814-.09-.483-.39-.893-.9-1.228zM1216.34 179.676a3.01 3.01 0 00-.73-.687c-.41-.272-.82-.371-1.21-.297-.39.064-.73.251-1.01.561l-3.33 5.079-1.16-.76 4.75-7.255.81.532-.36 1.027.06.038c.4-.208.78-.317 1.15-.327.38-.012.77.111 1.16.371.28.183.57.437.85.762l-.98.956zM1215.8 182.906c.81-1.228 1.69-1.989 2.66-2.283.98-.297 1.98-.109 3.01.562.54.354.95.753 1.22 1.197.3.44.46.914.5 1.424.05.5-.02 1.028-.21 1.584-.17.547-.45 1.105-.82 1.676-.81 1.229-1.7 1.991-2.68 2.288-.97.294-1.96.105-2.99-.566-.54-.355-.96-.752-1.25-1.192a3.08 3.08 0 01-.48-1.415c-.04-.51.03-1.038.2-1.584.19-.557.47-1.12.84-1.691zm1.21.788c-.25.368-.44.743-.6 1.126-.14.389-.22.76-.23 1.113-.01.353.06.689.21 1.008.15.32.41.597.76.831 1.31.871 2.58.373 3.8-1.494.25-.377.44-.761.59-1.15.15-.383.23-.751.24-1.103.01-.353-.06-.684-.22-.994-.15-.32-.4-.596-.76-.831-1.31-.87-2.57-.372-3.79 1.494zM1228.82 193.043c-.33.493-.62.946-.87 1.359-.25.403-.46.823-.64 1.261l-.78-.513.38-1.22-.06-.038c-.41.211-.88.308-1.39.29-.51-.018-1.02-.188-1.51-.511-.97-.634-1.49-1.41-1.56-2.33-.07-.913.32-2.018 1.17-3.314.81-1.238 1.72-1.986 2.71-2.245 1.02-.262 2.04-.057 3.06.614.36.234.63.437.81.609.18.178.37.39.56.635l1.97-3.018 1.16.76-5.01 7.661zm-4.02-.265c.5.323.97.454 1.43.393.46-.072.91-.334 1.36-.786l2.36-3.599a2.099 2.099 0 00-.41-.679c-.18-.204-.46-.426-.83-.667-.67-.437-1.33-.556-2-.358-.66.188-1.31.766-1.94 1.733-.26.397-.48.784-.64 1.16-.15.383-.24.743-.25 1.08-.01.336.05.653.19.95.15.294.39.552.73.773zM1236.62 198.153c-.32.494-.61.947-.86 1.359-.25.403-.47.823-.64 1.261l-.79-.513.39-1.22-.06-.038c-.42.212-.88.309-1.39.291-.52-.018-1.02-.189-1.51-.512-.97-.633-1.49-1.409-1.57-2.329-.06-.913.33-2.018 1.18-3.314.81-1.238 1.71-1.987 2.71-2.245 1.02-.262 2.04-.057 3.06.614.36.234.63.437.8.609.19.178.38.389.56.635l1.98-3.018 1.16.759-5.02 7.661zm-4.01-.264c.49.323.97.454 1.42.392.46-.071.92-.333 1.37-.786l2.35-3.598c-.08-.25-.22-.476-.4-.68a4.461 4.461 0 00-.83-.666c-.67-.437-1.34-.556-2-.358-.67.188-1.31.766-1.95 1.733a7.42 7.42 0 00-.63 1.16 3.03 3.03 0 00-.25 1.079c-.02.337.05.654.18.951.16.294.4.551.74.773zM1239.19 198.219c.81-1.228 1.69-1.989 2.66-2.283.98-.297 1.99-.109 3.01.562.54.354.95.753 1.23 1.197.29.44.46.914.5 1.424.04.5-.03 1.028-.21 1.584a7.322 7.322 0 01-.83 1.676c-.8 1.229-1.7 1.991-2.68 2.288-.97.294-1.96.105-2.99-.566-.54-.355-.95-.752-1.25-1.192a3.33 3.33 0 01-.48-1.415c-.04-.51.03-1.038.21-1.584.18-.557.46-1.12.83-1.691zm1.21.788c-.24.368-.44.743-.59 1.126-.15.389-.22.76-.23 1.113-.01.353.06.689.21 1.008.15.32.4.597.76.831 1.31.871 2.57.373 3.8-1.494.24-.377.44-.761.58-1.15.16-.383.24-.751.25-1.103.01-.353-.07-.684-.22-.994-.15-.32-.41-.596-.76-.831-1.31-.87-2.58-.372-3.8 1.494zM1252.45 203.308a3.22 3.22 0 00-.73-.686c-.42-.272-.83-.372-1.22-.298-.39.065-.72.252-1.01.562l-3.32 5.078-1.16-.76 4.74-7.254.82.532-.37 1.027.06.038c.4-.208.78-.317 1.15-.327.38-.013.77.111 1.17.37.28.184.56.438.85.763l-.98.955zM1255.61 213.318c-.44.043-.93-.014-1.46-.17a5.619 5.619 0 01-1.53-.709c-.55-.361-.97-.761-1.26-1.201-.29-.45-.45-.925-.5-1.424-.04-.51.03-1.038.21-1.585.18-.546.45-1.11.83-1.69.81-1.238 1.71-2.001 2.68-2.288.98-.287 1.98-.095 3 .576.33.215.64.469.92.762a2.467 2.467 0 01.68 2.274c-.07.475-.31 1.017-.71 1.627-.21.319-.47.653-.78 1.002l-4.66-3.049c-.28.426-.48.832-.61 1.217-.13.386-.17.755-.14 1.108.04.343.16.672.37.988.22.312.55.607.97.886.33.215.7.373 1.1.472.41.099.74.125 1.01.078l-.12 1.126zm1.32-7.466c-.57-.374-1.12-.524-1.67-.452-.53.078-1.07.457-1.61 1.139l3.59 2.355c.49-.735.68-1.34.59-1.813-.08-.484-.38-.893-.9-1.229zM1261.03 213.406l-.49 1.644.01.01 1.29-1.17 4.39-3.159 1.24.817-7.94 5.391-.49-.322 1.7-9.476 1.34.874-1.05 5.391zM1269.5 222.408c-.44.042-.93-.015-1.47-.171a5.53 5.53 0 01-1.52-.708c-.55-.361-.97-.762-1.27-1.202a3.15 3.15 0 01-.49-1.424c-.04-.509.03-1.038.2-1.584.18-.547.46-1.11.84-1.691.81-1.238 1.7-2 2.68-2.288.98-.287 1.98-.095 3 .576.33.216.63.47.91.762.29.283.49.612.62.986s.15.803.07 1.288c-.08.476-.31 1.018-.71 1.627-.21.319-.47.654-.78 1.002l-4.66-3.048c-.28.425-.48.831-.61 1.217-.13.386-.18.755-.15 1.107.04.343.17.672.37.988.23.312.55.608.98.887.33.215.69.372 1.1.471.4.099.74.126 1 .078l-.11 1.127zm1.32-7.466c-.57-.374-1.13-.525-1.67-.453-.54.078-1.08.458-1.62 1.139l3.6 2.356c.48-.736.68-1.34.59-1.814-.09-.483-.39-.893-.9-1.228zM1275.85 227.393l2.7-4.135c.5-.754.76-1.393.78-1.916.04-.526-.23-.979-.81-1.359-.51-.336-1.03-.474-1.55-.415-.51.055-.96.247-1.37.574l-3.25 4.962-1.16-.759 4.75-7.255.81.532-.36 1.027.06.038c.43-.157.91-.206 1.42-.146.53.056 1.07.262 1.61.616.39.26.71.536.95.829.24.284.38.605.42.963.05.365 0 .778-.16 1.238-.15.456-.42.985-.81 1.584l-2.87 4.382-1.16-.76zM1269.2 229.086l-2.71 4.135c-.49.755-.75 1.393-.78 1.916-.04.526.23.98.81 1.359.52.336 1.03.474 1.56.415.5-.055.96-.247 1.37-.574l3.25-4.962 1.16.76-4.75 7.254-.82-.531.37-1.028-.06-.038c-.44.158-.91.207-1.42.147-.53-.057-1.07-.262-1.61-.617-.4-.259-.71-.536-.95-.829a1.776 1.776 0 01-.43-.963c-.05-.365.01-.778.17-1.237.15-.457.42-.985.81-1.585l2.87-4.382 1.16.76zM1260.25 224.055c.44-.043.93.014 1.46.17.52.149 1.03.386 1.52.709.56.361.98.761 1.27 1.201.29.45.45.925.5 1.424.04.51-.03 1.038-.21 1.585-.18.546-.46 1.11-.84 1.69-.81 1.238-1.7 2.001-2.68 2.288-.97.287-1.97.095-3-.576a5.126 5.126 0 01-.91-.762 2.607 2.607 0 01-.62-.985c-.13-.375-.15-.804-.07-1.289.08-.475.32-1.017.72-1.627.21-.319.47-.653.78-1.002l4.65 3.049c.28-.426.49-.832.62-1.218.12-.385.17-.755.14-1.107a2.23 2.23 0 00-.37-.988c-.22-.312-.55-.608-.97-.886-.33-.215-.7-.373-1.1-.472-.41-.099-.74-.125-1.01-.078l.12-1.126zm-1.33 7.466c.57.373 1.13.524 1.68.452.53-.078 1.07-.458 1.61-1.139l-3.6-2.355c-.48.735-.67 1.339-.58 1.813.08.484.38.893.89 1.229zM1254.82 223.967l.5-1.644-.01-.01-1.29 1.17-4.39 3.159-1.25-.817 7.95-5.392.49.323-1.7 9.476-1.34-.874 1.04-5.391zM1246.36 214.965c.44-.042.93.015 1.46.17.53.15 1.04.386 1.53.709.55.361.97.762 1.26 1.202.29.449.46.924.5 1.424a4.03 4.03 0 01-.21 1.584c-.17.547-.45 1.11-.83 1.691-.81 1.238-1.71 2-2.68 2.288-.98.287-1.98.095-3-.576a4.87 4.87 0 01-.91-.762 2.494 2.494 0 01-.62-.986c-.13-.374-.15-.804-.07-1.288.07-.476.31-1.018.71-1.627.21-.32.47-.654.78-1.003l4.66 3.049c.28-.425.48-.831.61-1.217.13-.386.18-.755.14-1.108a2.112 2.112 0 00-.37-.987c-.22-.313-.54-.608-.97-.887-.33-.215-.7-.372-1.1-.471-.41-.1-.74-.126-1.01-.078l.12-1.127zm-1.32 7.466c.57.374 1.13.525 1.67.453.53-.078 1.07-.458 1.62-1.139l-3.6-2.356c-.48.736-.68 1.34-.59 1.814.09.483.38.893.9 1.228zM1237.23 216.924c.22.287.47.516.73.687.41.272.82.371 1.21.297.39-.064.73-.251 1.01-.561l3.33-5.079 1.16.76-4.75 7.255-.81-.532.36-1.027-.06-.038c-.4.208-.78.317-1.15.327-.38.013-.77-.111-1.16-.37a4.149 4.149 0 01-.85-.763l.98-.956zM1237.77 213.694c-.81 1.228-1.69 1.989-2.66 2.283-.98.297-1.98.11-3.01-.562-.54-.354-.95-.753-1.22-1.197-.3-.44-.46-.914-.5-1.424-.05-.5.02-1.028.21-1.584.17-.547.45-1.105.82-1.676.81-1.229 1.7-1.991 2.68-2.288.97-.294 1.96-.105 2.99.566.54.355.96.752 1.25 1.192.28.444.44.915.48 1.415.04.51-.03 1.038-.2 1.584-.19.557-.47 1.12-.84 1.691zm-1.21-.788a7 7 0 00.6-1.126c.14-.389.22-.76.23-1.113.01-.353-.06-.689-.21-1.008-.15-.32-.41-.597-.77-.831-1.31-.871-2.57-.373-3.79 1.494-.25.377-.45.761-.59 1.15-.15.383-.24.751-.25 1.103 0 .353.07.684.22.994.16.32.41.596.77.831 1.31.87 2.57.372 3.79-1.494zM1224.75 203.557c.33-.493.61-.946.87-1.359.25-.403.46-.823.64-1.26l.78.512-.38 1.221.06.038c.41-.212.88-.309 1.39-.291.51.018 1.02.188 1.51.511.97.634 1.49 1.41 1.56 2.33.07.913-.32 2.018-1.17 3.314-.81 1.238-1.72 1.986-2.71 2.245-1.02.262-2.04.057-3.06-.614a5.747 5.747 0 01-.81-.609 5.39 5.39 0 01-.56-.635l-1.97 3.018-1.16-.76 5.01-7.661zm4.02.265c-.5-.323-.97-.454-1.43-.392-.46.071-.91.333-1.36.785l-2.36 3.599c.09.249.22.476.41.679.18.204.46.426.83.667.66.437 1.33.556 2 .358.66-.188 1.31-.766 1.94-1.733.26-.397.48-.784.64-1.16.15-.383.24-.743.25-1.08a2.05 2.05 0 00-.19-.95c-.15-.294-.4-.552-.73-.773zM1216.94 198.447c.33-.494.62-.947.87-1.359.25-.403.47-.823.64-1.261l.79.513-.39 1.22.06.038c.41-.212.88-.309 1.39-.291.52.018 1.02.189 1.51.512.97.633 1.49 1.409 1.57 2.329.06.913-.33 2.018-1.18 3.314-.81 1.238-1.71 1.987-2.71 2.245-1.02.262-2.04.058-3.06-.614a5.747 5.747 0 01-.81-.609 5.281 5.281 0 01-.55-.635l-1.98 3.018-1.16-.759 5.01-7.661zm4.02.264c-.49-.323-.97-.454-1.42-.392-.46.071-.92.333-1.37.786l-2.35 3.598c.08.25.22.476.4.68.19.203.46.426.83.666.67.437 1.34.557 2 .359.67-.189 1.31-.767 1.95-1.734.26-.397.47-.783.63-1.16.16-.383.24-.742.25-1.079.02-.337-.05-.654-.18-.951-.16-.294-.4-.551-.74-.773zM1214.37 198.381c-.8 1.228-1.68 1.989-2.65 2.283-.98.297-1.99.11-3.01-.562-.54-.354-.95-.753-1.23-1.197a2.98 2.98 0 01-.5-1.424c-.04-.5.03-1.028.21-1.584.18-.547.46-1.105.83-1.676.8-1.229 1.7-1.991 2.68-2.288.96-.294 1.96-.105 2.99.566.54.355.95.752 1.25 1.192.27.444.43.915.48 1.415.04.51-.03 1.038-.21 1.584-.18.557-.46 1.12-.84 1.691zm-1.2-.788c.24-.368.44-.743.59-1.126.15-.389.22-.76.23-1.113.01-.353-.06-.689-.21-1.008-.15-.32-.4-.597-.76-.831-1.31-.871-2.57-.373-3.8 1.494-.24.377-.44.761-.58 1.15-.16.383-.24.751-.25 1.103-.01.353.06.684.22.994.15.32.41.596.76.831 1.31.87 2.58.372 3.8-1.494zM1201.12 193.292c.23.286.47.515.73.686.42.272.82.372 1.22.298.39-.064.72-.252 1.01-.562l3.32-5.078 1.16.76-4.75 7.254-.81-.532.36-1.027-.05-.038c-.4.208-.79.318-1.15.327-.38.013-.77-.111-1.17-.37a4.425 4.425 0 01-.85-.763l.98-.955zM1197.96 183.282c.44-.043.93.014 1.46.17.52.15 1.03.386 1.53.709.55.361.97.761 1.26 1.201.29.45.45.925.5 1.425a4.03 4.03 0 01-.21 1.584c-.18.546-.46 1.11-.84 1.69-.81 1.238-1.7 2.001-2.67 2.288-.98.287-1.98.095-3.01-.576a5.508 5.508 0 01-.91-.762 2.607 2.607 0 01-.62-.985 2.614 2.614 0 01-.06-1.289c.07-.475.31-1.017.71-1.627.21-.319.47-.653.78-1.002l4.66 3.049c.27-.426.48-.832.61-1.217.12-.386.17-.755.14-1.108a2.23 2.23 0 00-.37-.988c-.22-.312-.55-.607-.97-.886-.33-.215-.7-.373-1.1-.472-.41-.099-.74-.125-1.01-.078l.12-1.126zm-1.33 7.466c.58.374 1.13.524 1.68.453.53-.079 1.07-.458 1.61-1.14l-3.59-2.355c-.49.735-.68 1.34-.59 1.813.08.484.38.893.89 1.229zM1192.54 183.194l.49-1.644-.01-.01-1.29 1.17-4.39 3.159-1.24-.817 7.94-5.391.49.322-1.7 9.476-1.34-.874 1.05-5.391zM1184.07 174.192c.44-.042.93.015 1.46.171.53.149 1.04.385 1.53.708.55.361.97.762 1.27 1.202.28.449.45.924.49 1.424.04.51-.03 1.038-.2 1.584-.18.547-.46 1.11-.84 1.691-.81 1.238-1.7 2-2.68 2.288-.98.287-1.98.095-3-.576-.33-.216-.63-.47-.91-.762a2.494 2.494 0 01-.62-.986c-.13-.374-.15-.803-.07-1.288.08-.476.31-1.018.71-1.627.21-.319.47-.653.78-1.002l4.66 3.048c.28-.425.48-.831.61-1.217.13-.386.18-.755.15-1.107a2.358 2.358 0 00-.37-.988c-.23-.312-.55-.608-.98-.887a3.48 3.48 0 00-1.1-.471c-.4-.099-.74-.125-1-.078l.11-1.127zm-1.32 7.467c.57.373 1.13.524 1.67.452.54-.078 1.08-.458 1.62-1.139l-3.6-2.355c-.48.735-.68 1.339-.59 1.813.09.483.39.893.9 1.229zM1177.72 169.207l-2.71 4.135c-.49.754-.75 1.393-.77 1.916-.04.526.23.979.81 1.359.51.336 1.03.474 1.55.415.51-.055.96-.247 1.37-.574l3.25-4.962 1.16.759-4.75 7.255-.81-.532.36-1.027-.06-.038c-.43.157-.91.206-1.42.146-.53-.056-1.07-.262-1.61-.616-.39-.26-.71-.536-.95-.829a1.765 1.765 0 01-.42-.963c-.06-.365 0-.778.16-1.238.15-.456.42-.985.81-1.584l2.87-4.382 1.16.76zM857.244 65.587c-.609.448-1.33.783-2.163 1.007a9.278 9.278 0 01-2.621.366c-1.178 0-2.174-.183-2.986-.55a5.41 5.41 0 01-2.011-1.616c-.508-.711-.884-1.555-1.128-2.531-.223-.996-.335-2.094-.335-3.294 0-2.583.569-4.555 1.706-5.917 1.138-1.383 2.773-2.074 4.906-2.074.976 0 1.798.081 2.469.244a7.15 7.15 0 011.858.64l-.7 2.105a6.214 6.214 0 00-1.554-.61 6.628 6.628 0 00-1.829-.244c-2.884 0-4.327 1.952-4.327 5.856 0 .773.071 1.515.213 2.226.163.692.417 1.312.762 1.86.366.53.833.956 1.402 1.282.589.325 1.31.488 2.164.488.731 0 1.381-.112 1.95-.336.589-.223 1.066-.478 1.432-.762l.792 1.86zM861.119 51.344h2.438v15.25h-2.438v-15.25zm-.518-4.636c0-.468.153-.864.457-1.19a1.605 1.605 0 011.219-.518c.488 0 .904.173 1.25.519.345.325.518.721.518 1.189 0 .468-.173.854-.518 1.159a1.824 1.824 0 01-1.25.458c-.487 0-.894-.153-1.219-.458-.304-.305-.457-.691-.457-1.159zM873.143 60.28l.853 2.898h.031l.761-2.959 3.413-8.875h2.621l-6.491 15.585h-1.036l-6.612-15.585h2.803l3.657 8.936zM883.973 51.344h2.438v15.25h-2.438v-15.25zm-.518-4.636c0-.468.153-.864.457-1.19a1.605 1.605 0 011.219-.518c.488 0 .904.173 1.25.519.345.325.518.721.518 1.189 0 .468-.173.854-.518 1.159a1.824 1.824 0 01-1.25.458c-.487 0-.894-.153-1.219-.458-.304-.305-.457-.691-.457-1.159zM902 65.587c-.609.448-1.331.783-2.164 1.007a9.266 9.266 0 01-2.62.366c-1.178 0-2.174-.183-2.986-.55a5.42 5.42 0 01-2.012-1.616c-.507-.711-.883-1.555-1.127-2.531-.223-.996-.335-2.094-.335-3.294 0-2.583.569-4.555 1.706-5.917 1.138-1.383 2.773-2.074 4.906-2.074.975 0 1.798.081 2.468.244a7.145 7.145 0 011.859.64l-.701 2.105a6.184 6.184 0 00-1.554-.61 6.615 6.615 0 00-1.828-.244c-2.885 0-4.327 1.952-4.327 5.856 0 .773.071 1.515.213 2.226.163.692.417 1.312.762 1.86.366.53.833.956 1.402 1.282.589.325 1.31.488 2.163.488.732 0 1.382-.112 1.951-.336.589-.223 1.066-.478 1.432-.762l.792 1.86zM857.244 71.413c-.609-.448-1.33-.783-2.163-1.007a9.278 9.278 0 00-2.621-.366c-1.178 0-2.174.183-2.986.55a5.41 5.41 0 00-2.011 1.616c-.508.711-.884 1.555-1.128 2.531-.223.997-.335 2.095-.335 3.294 0 2.582.569 4.555 1.706 5.917 1.138 1.383 2.773 2.074 4.906 2.074.976 0 1.798-.081 2.469-.244a7.15 7.15 0 001.858-.64l-.7-2.105a6.214 6.214 0 01-1.554.61 6.628 6.628 0 01-1.829.244c-2.884 0-4.327-1.952-4.327-5.856 0-.773.071-1.515.213-2.226a6.097 6.097 0 01.762-1.86 4.241 4.241 0 011.402-1.282c.589-.325 1.31-.488 2.164-.488.731 0 1.381.112 1.95.336.589.223 1.066.478 1.432.762l.792-1.86zM861.119 85.656h2.438v-15.25h-2.438v15.25zm-.518 4.636c0 .468.153.864.457 1.19.325.345.732.518 1.219.518.488 0 .904-.173 1.25-.519.345-.325.518-.721.518-1.189a1.48 1.48 0 00-.518-1.159 1.824 1.824 0 00-1.25-.457c-.487 0-.894.152-1.219.457-.304.305-.457.691-.457 1.159zM873.143 76.72l.853-2.898h.031l.761 2.959 3.413 8.875h2.621l-6.491-15.585h-1.036l-6.612 15.585h2.803l3.657-8.936zM883.973 85.656h2.438v-15.25h-2.438v15.25zm-.518 4.636c0 .468.153.864.457 1.19.325.345.732.518 1.219.518.488 0 .904-.173 1.25-.519.345-.325.518-.721.518-1.189a1.48 1.48 0 00-.518-1.159 1.824 1.824 0 00-1.25-.457c-.487 0-.894.152-1.219.457-.304.305-.457.691-.457 1.159zM902 71.413c-.609-.448-1.331-.783-2.164-1.007a9.266 9.266 0 00-2.62-.366c-1.178 0-2.174.183-2.986.55a5.42 5.42 0 00-2.012 1.616c-.507.711-.883 1.555-1.127 2.531-.223.997-.335 2.095-.335 3.294 0 2.582.569 4.555 1.706 5.917 1.138 1.383 2.773 2.074 4.906 2.074.975 0 1.798-.081 2.468-.244a7.145 7.145 0 001.859-.64l-.701-2.105a6.184 6.184 0 01-1.554.61 6.615 6.615 0 01-1.828.244c-2.885 0-4.327-1.952-4.327-5.856 0-.773.071-1.515.213-2.226a6.097 6.097 0 01.762-1.86 4.241 4.241 0 011.402-1.282c.589-.325 1.31-.488 2.163-.488.732 0 1.382.112 1.951.336.589.223 1.066.478 1.432.762l.792-1.86zM333.265 17.427c-.346.638-.484 1.152-.412 1.545.071.392.307.698.71.916.237.13.503.25.797.363.295.113.65.2 1.067.26l-.688 1.856c-.372-.013-.848-.118-1.428-.316a8.889 8.889 0 01-1.418-.593c-.823-.447-1.376-1.043-1.659-1.786-.273-.762-.108-1.698.495-2.809l8.904-16.39 2.195 1.192-8.563 15.762zM347.616 28.16c-.786.139-1.669.107-2.649-.095a10.078 10.078 0 01-2.842-1.048c-1.042-.567-1.858-1.222-2.448-1.968a5.694 5.694 0 01-1.107-2.476c-.147-.905-.103-1.86.135-2.863.237-1.003.652-2.051 1.246-3.144 1.266-2.331 2.752-3.824 4.457-4.477 1.706-.654 3.528-.455 5.466.598a9.285 9.285 0 011.747 1.232 4.56 4.56 0 011.258 1.675c.286.65.392 1.415.317 2.294-.065.861-.41 1.865-1.033 3.013a15.223 15.223 0 01-1.248 1.904l-8.806-4.784c-.435.802-.739 1.557-.911 2.265-.171.709-.202 1.376-.092 2.002.12.608.39 1.179.81 1.714.448.526 1.075 1.008 1.879 1.445a6.368 6.368 0 002.044.686c.74.12 1.345.118 1.814-.005l-.037 2.032zm1.247-13.545c-1.079-.587-2.101-.776-3.066-.57-.947.217-1.856.974-2.726 2.27l6.804 3.696c.752-1.384 1.011-2.493.777-3.327-.223-.853-.82-1.543-1.789-2.07zM357.346 27.537l-.641 3.013.027.015 2.125-2.277 7.391-6.28 2.36 1.281-13.427 10.785-.933-.507 1.63-17.193 2.524 1.371-1.056 9.792zM373.871 42.423c-.786.139-1.669.107-2.649-.095a10.075 10.075 0 01-2.842-1.048c-1.042-.566-1.858-1.222-2.448-1.967a5.695 5.695 0 01-1.107-2.477c-.147-.905-.102-1.86.135-2.863s.652-2.051 1.246-3.144c1.266-2.331 2.752-3.823 4.457-4.477 1.706-.654 3.528-.455 5.466.599a9.285 9.285 0 011.747 1.232 4.56 4.56 0 011.258 1.674c.286.65.392 1.415.317 2.294-.065.861-.409 1.865-1.033 3.013a15.231 15.231 0 01-1.248 1.905l-8.806-4.785c-.435.802-.739 1.557-.911 2.265-.171.709-.202 1.376-.092 2.002.12.608.39 1.179.81 1.714.448.526 1.075 1.008 1.879 1.445a6.368 6.368 0 002.044.686c.74.12 1.345.118 1.814-.005l-.037 2.032zm1.247-13.545c-1.079-.587-2.101-.776-3.066-.57-.947.218-1.856.974-2.726 2.27l6.804 3.697c.752-1.385 1.011-2.494.777-3.328-.223-.853-.82-1.543-1.789-2.07zM381.462 43.61c-.346.638-.484 1.153-.413 1.545.071.392.308.698.71.916.238.13.504.25.798.363.294.113.65.2 1.066.26l-.688 1.856c-.371-.013-.847-.118-1.427-.316a8.85 8.85 0 01-1.418-.593c-.823-.447-1.376-1.043-1.66-1.786-.273-.762-.108-1.698.496-2.809l8.904-16.39 2.195 1.192-8.563 15.762zM326.523 29.838c.346-.637.703-1.033 1.071-1.187.368-.154.753-.121 1.155.097.238.13.484.287.739.472.254.186.521.437.799.753l1.182-1.587c-.214-.305-.561-.647-1.042-1.026a8.855 8.855 0 00-1.27-.867c-.823-.447-1.623-.587-2.401-.42-.787.186-1.483.834-2.086 1.945l-8.905 16.39 2.195 1.192 8.563-15.762zM343.337 36.036c-.311-.735-.818-1.459-1.521-2.17a10.079 10.079 0 00-2.426-1.814c-1.043-.566-2.037-.894-2.983-.983a5.7 5.7 0 00-2.68.419c-.84.37-1.616.926-2.329 1.671-.712.745-1.365 1.664-1.959 2.757-1.266 2.33-1.71 4.39-1.33 6.176.379 1.787 1.539 3.206 3.477 4.26a9.285 9.285 0 001.984.795c.692.21 1.388.258 2.089.144.702-.114 1.401-.442 2.098-.984.687-.523 1.342-1.358 1.965-2.505.327-.601.633-1.296.919-2.084l-8.806-4.784c.435-.801.903-1.467 1.404-1.996.501-.53 1.044-.92 1.629-1.168a4.012 4.012 0 011.878-.253c.686.09 1.431.353 2.236.79a6.362 6.362 0 011.687 1.341c.504.557.831 1.065.984 1.525l1.684-1.137zm-10.685 8.418c-1.079-.586-1.794-1.34-2.146-2.262-.333-.913-.193-2.087.421-3.522l6.804 3.696c-.752 1.384-1.542 2.205-2.369 2.464-.837.276-1.74.15-2.71-.376zM348.111 44.538l2.178-2.178.027.015-.754 3.022-1.245 9.619 2.359 1.282 1.74-17.134-.933-.507-13.536 10.725 2.523 1.371 7.641-6.215zM369.592 50.3c-.311-.736-.818-1.46-1.521-2.171a10.079 10.079 0 00-2.426-1.814c-1.043-.566-2.037-.894-2.983-.983a5.7 5.7 0 00-2.68.419c-.84.37-1.616.926-2.329 1.671-.712.745-1.365 1.664-1.959 2.757-1.266 2.33-1.71 4.39-1.33 6.176.379 1.787 1.539 3.207 3.477 4.26a9.28 9.28 0 001.984.795c.692.21 1.388.258 2.089.144.702-.114 1.401-.442 2.098-.983.687-.524 1.342-1.359 1.965-2.506.327-.601.633-1.296.919-2.084l-8.806-4.784c.435-.801.903-1.467 1.404-1.996.501-.53 1.044-.92 1.629-1.168a4.012 4.012 0 011.878-.253c.686.09 1.431.353 2.236.79a6.382 6.382 0 011.688 1.341c.503.557.83 1.065.983 1.526l1.684-1.138zm-10.685 8.417c-1.079-.586-1.794-1.34-2.146-2.262-.333-.913-.193-2.087.421-3.522l6.804 3.696c-.752 1.384-1.542 2.205-2.369 2.464-.837.276-1.74.151-2.71-.376zM374.72 56.021c.346-.637.703-1.033 1.071-1.187.368-.154.753-.121 1.155.097.238.13.484.287.739.472.254.186.521.437.799.753l1.182-1.587c-.214-.305-.561-.647-1.042-1.026a8.91 8.91 0 00-1.27-.867c-.823-.447-1.623-.587-2.401-.42-.788.186-1.483.834-2.087 1.945l-8.904 16.39 2.195 1.193 8.563-15.763zM9.256 925.811c-.487.136-.91.324-1.268.566-.57.385-.914.848-1.03 1.39-.126.529-.068 1.059.175 1.59l4.699 6.963-1.592 1.074-6.712-9.947 1.114-.752 1.117 1.013.08-.054c-.053-.621.013-1.167.197-1.639.188-.493.554-.924 1.097-1.291.385-.259.86-.484 1.428-.673l.695 1.76zM10.626 923.728c.298-.645.73-1.264 1.294-1.858a12.09 12.09 0 011.961-1.642c.69-.465 1.303-.744 1.84-.835.549-.101 1.033-.071 1.45.091a2.7 2.7 0 011.096.68c.322.304.603.635.845.993.537.796 1.04 1.585 1.51 2.368.471.783.935 1.513 1.391 2.189.331.491.664.941 1 1.352.335.411.68.766 1.037 1.066l-1.173.792-1.358-1.11-.1.067a4.08 4.08 0 01-.081.866 3.71 3.71 0 01-.314.907 5.086 5.086 0 01-1.687 1.833 4.262 4.262 0 01-1.328.607 3.48 3.48 0 01-1.311.074 3.5 3.5 0 01-1.241-.466 3.595 3.595 0 01-1.01-1.026c-.395-.584-.602-1.148-.623-1.694a3.022 3.022 0 01.364-1.606c.276-.534.682-1.049 1.216-1.545a14.151 14.151 0 011.902-1.515l.537-.362c.186-.126.38-.238.584-.336-.229-.425-.45-.797-.665-1.115-.493-.729-.983-1.142-1.472-1.236-.489-.095-1.118.117-1.887.636a6.075 6.075 0 00-.696.556 7.556 7.556 0 00-.701.677 6.23 6.23 0 00-.629.742 4.29 4.29 0 00-.448.708l-1.303-.858zm8.208 6.071c.372-.25.672-.521.901-.81.22-.303.387-.599.501-.889.105-.302.16-.591.168-.866.02-.284.006-.535-.044-.752l-1.114-1.651a9.865 9.865 0 00-.59.369 10.948 10.948 0 00-1.73 1.255 4.18 4.18 0 00-.86.957 2.15 2.15 0 00-.368 1c-.03.329.068.659.292.99.313.465.739.737 1.276.819.528.068 1.051-.073 1.568-.422zM32.2 917.594c.457.677.88 1.289 1.269 1.837.38.535.802 1.032 1.266 1.49l-1.074.725-1.351-1.144-.08.054c.048.643-.077 1.288-.375 1.933s-.785 1.196-1.462 1.652c-1.326.895-2.596 1.144-3.81.747-1.2-.406-2.4-1.497-3.6-3.274-1.145-1.698-1.615-3.253-1.41-4.665.21-1.435 1.017-2.627 2.422-3.575.491-.331.894-.564 1.208-.699a7.146 7.146 0 011.11-.373l-2.793-4.138 1.591-1.074 7.09 10.504zm-2.488 4.98c.677-.456 1.097-.991 1.262-1.605.157-.626.066-1.347-.271-2.162l-3.33-4.933a2.686 2.686 0 00-1.084.152c-.359.127-.79.36-1.294.7-.915.618-1.425 1.406-1.531 2.365-.114.946.276 2.082 1.17 3.408.368.544.748 1.021 1.14 1.432.407.401.821.701 1.244.898.422.197.86.288 1.313.272.456-.038.917-.214 1.381-.527zM31.2 909.844c.298-.645.73-1.265 1.294-1.858a12.04 12.04 0 011.96-1.642c.69-.465 1.303-.744 1.84-.836.55-.1 1.034-.07 1.452.092.422.14.787.366 1.095.679.321.305.603.636.844.994.537.796 1.041 1.585 1.511 2.368.47.783.934 1.512 1.39 2.189.332.49.665.941 1 1.352.335.411.681.766 1.038 1.066l-1.174.792-1.357-1.111-.1.067a4.08 4.08 0 01-.081.866c-.056.289-.161.591-.315.907a5.089 5.089 0 01-1.687 1.834 4.258 4.258 0 01-1.328.606 3.46 3.46 0 01-1.31.074 3.499 3.499 0 01-1.241-.465 3.622 3.622 0 01-1.011-1.026c-.394-.584-.601-1.149-.622-1.694a3.025 3.025 0 01.363-1.607c.277-.534.682-1.048 1.216-1.544a14.146 14.146 0 011.902-1.515l.538-.363c.185-.125.38-.237.583-.336-.228-.425-.45-.796-.665-1.114-.492-.73-.983-1.142-1.471-1.237-.489-.095-1.118.117-1.887.637a5.967 5.967 0 00-.696.556 7.671 7.671 0 00-.702.676 6.24 6.24 0 00-.628.743 4.21 4.21 0 00-.449.708l-1.302-.858zm8.208 6.071a3.96 3.96 0 00.9-.811c.22-.303.388-.599.502-.888.104-.302.16-.591.168-.866.02-.284.006-.535-.044-.752l-1.115-1.651a9.865 9.865 0 00-.59.369 9.547 9.547 0 00-.57.356 11.09 11.09 0 00-1.16.899 4.198 4.198 0 00-.86.956c-.212.317-.334.65-.367 1.001-.03.329.068.659.291.99.314.464.74.737 1.276.818.529.068 1.052-.072 1.57-.421zM46.46 900.704c-.488.135-.91.324-1.269.566-.57.385-.913.848-1.03 1.39-.126.529-.067 1.059.175 1.59l4.7 6.963-1.592 1.074-6.713-9.947 1.114-.752 1.117 1.012.08-.053c-.052-.621.013-1.167.197-1.639.188-.494.554-.924 1.098-1.291.384-.259.86-.484 1.427-.674l.696 1.761zM22.852 945.956a4.316 4.316 0 01-1 .964c-.57.385-1.128.531-1.675.436-.537-.081-1.007-.334-1.409-.758l-4.699-6.962-1.591 1.074 6.713 9.947 1.114-.752-.52-1.415.079-.054c.556.281 1.087.424 1.593.43.528.011 1.064-.168 1.608-.535.384-.259.77-.616 1.159-1.071l-1.372-1.304zM25.296 945.465c.71-.035 1.445-.203 2.207-.505.774-.31 1.527-.712 2.256-1.204.69-.465 1.177-.93 1.463-1.393.3-.472.452-.932.458-1.38a2.702 2.702 0 00-.22-1.27 5.955 5.955 0 00-.605-1.155 53.82 53.82 0 00-1.63-2.288 48.96 48.96 0 01-1.51-2.108 18.547 18.547 0 01-.88-1.433 7.923 7.923 0 01-.6-1.361l-1.174.792.522 1.675-.1.067a4.067 4.067 0 00-.833-.248 3.71 3.71 0 00-.96-.048 5.1 5.1 0 00-2.331.878 4.266 4.266 0 00-1.059 1.005 3.46 3.46 0 00-.56 1.188 3.492 3.492 0 00-.032 1.325c.087.443.278.883.574 1.321.393.584.84.987 1.338 1.211.507.236 1.049.324 1.625.263.6-.056 1.228-.24 1.888-.549a14.246 14.246 0 002.117-1.197l.537-.363c.185-.125.362-.264.53-.415.308.371.57.715.785 1.033.492.73.69 1.339.596 1.828-.095.488-.527.992-1.297 1.511a5.895 5.895 0 01-.776.437 7.4 7.4 0 01-.89.398 6.22 6.22 0 01-.923.305 4.29 4.29 0 01-.825.151l.309 1.529zm-2.56-9.883a3.94 3.94 0 011.09-.532 4.07 4.07 0 011.01-.133c.32.016.609.072.867.169.271.087.498.194.68.322l1.115 1.651a9.459 9.459 0 01-.564.409 9.078 9.078 0 01-.543.396c-.411.277-.834.524-1.267.739-.412.22-.815.367-1.21.44a2.16 2.16 0 01-1.065-.034c-.315-.096-.585-.31-.809-.641a1.811 1.811 0 01-.281-1.49c.135-.515.46-.947.978-1.296zM39.056 927.753a93.364 93.364 0 01-1.229-1.863 11.277 11.277 0 01-.908-1.733l-1.074.725.555 1.681-.08.054c-.578-.285-1.222-.41-1.932-.375-.71.035-1.403.281-2.08.737-1.326.895-2.032 1.98-2.118 3.254-.072 1.265.49 2.786 1.69 4.563 1.146 1.698 2.412 2.716 3.798 3.054 1.41.343 2.816.04 4.222-.909.49-.331.858-.617 1.1-.858.256-.25.51-.547.76-.89l2.793 4.138 1.592-1.074-7.089-10.504zm-5.549.444c.677-.456 1.33-.646 1.96-.57.64.09 1.274.443 1.904 1.061l3.33 4.934a2.699 2.699 0 01-.548.948c-.251.285-.629.598-1.133.938-.915.618-1.837.796-2.766.535-.92-.248-1.828-1.035-2.723-2.361a10.812 10.812 0 01-.9-1.592c-.221-.527-.344-1.024-.368-1.489a2.834 2.834 0 01.238-1.32c.207-.409.542-.77 1.006-1.084zM45.87 931.581c.709-.035 1.445-.203 2.206-.505a12.074 12.074 0 002.257-1.204c.69-.466 1.177-.93 1.463-1.393.299-.472.452-.932.458-1.381a2.704 2.704 0 00-.22-1.27 5.955 5.955 0 00-.606-1.155 53.778 53.778 0 00-1.63-2.287 49.68 49.68 0 01-1.51-2.108 18.547 18.547 0 01-.88-1.433 7.923 7.923 0 01-.6-1.361l-1.174.792.522 1.674-.1.068a4.066 4.066 0 00-.833-.249 3.71 3.71 0 00-.959-.048 5.1 5.1 0 00-2.332.879 4.244 4.244 0 00-1.058 1.004 3.477 3.477 0 00-.56 1.188 3.493 3.493 0 00-.032 1.325c.087.444.278.884.573 1.322.394.583.84.987 1.339 1.21.507.237 1.049.325 1.625.264.599-.057 1.228-.24 1.887-.55a14.069 14.069 0 002.117-1.197l.537-.362c.186-.125.363-.264.53-.416.309.371.57.716.785 1.034.492.73.691 1.339.596 1.827-.095.489-.527.993-1.296 1.512a6.01 6.01 0 01-.776.437 7.56 7.56 0 01-.89.398 6.339 6.339 0 01-.923.305 4.29 4.29 0 01-.825.151l.308 1.529zm-2.56-9.884c.372-.25.735-.428 1.089-.532a4.02 4.02 0 011.011-.132c.32.016.609.072.866.168.272.087.498.195.681.323l1.114 1.651a9.928 9.928 0 01-.563.409c-.177.138-.358.27-.544.396-.41.277-.833.524-1.267.739-.411.22-.814.366-1.209.44a2.16 2.16 0 01-1.065-.034c-.316-.096-.585-.31-.81-.641-.312-.465-.406-.961-.28-1.49.134-.515.46-.948.977-1.297zM60.055 920.849a4.316 4.316 0 01-1 .964c-.57.385-1.128.53-1.674.436-.538-.081-1.007-.334-1.41-.758l-4.698-6.963-1.592 1.075 6.713 9.946 1.114-.751-.52-1.415.08-.054c.556.281 1.087.424 1.593.43.528.011 1.064-.168 1.607-.535.385-.259.771-.616 1.16-1.071l-1.373-1.304zM374.049 834.145l3.583-5.77a12.3 12.3 0 00.792-1.457c.213-.434.335-.828.368-1.185a1.592 1.592 0 00-.211-.978c-.16-.288-.444-.559-.852-.812-.625-.388-1.267-.523-1.925-.404a3.597 3.597 0 00-1.742.895l-4.356 7.014-1.631-1.013 6.331-10.194 1.142.709-.467 1.433.082.051a5.514 5.514 0 011.922-.275c.667.018 1.387.268 2.162.749.653.406 1.103.864 1.35 1.375.269.507.325 1.144.168 1.913a3.909 3.909 0 012.057-.446c.743.047 1.461.286 2.154.716.571.355 1.011.723 1.321 1.103.318.367.505.794.561 1.281.056.486-.035 1.042-.273 1.667-.223.633-.601 1.378-1.133 2.234l-3.799 6.117-1.631-1.013 3.812-6.137c.304-.489.538-.928.703-1.315.187-.392.278-.75.272-1.074a1.391 1.391 0 00-.262-.897c-.169-.275-.457-.538-.865-.792-.679-.422-1.328-.561-1.945-.416-.617.144-1.226.519-1.828 1.124l-4.229 6.81-1.631-1.013zM391.298 830.732l1.631 1.012-6.331 10.195-1.631-1.013 6.331-10.194zm1.578-3.315a1.32 1.32 0 01.8-.605 1.26 1.26 0 011.03.16c.327.203.534.491.621.866.096.361.047.697-.147 1.01-.194.313-.47.499-.828.56a1.437 1.437 0 01-1.026-.214c-.326-.202-.534-.473-.625-.812-.078-.331-.019-.652.175-.965zM396.62 848.163l3.609-5.811c.659-1.06.996-1.952 1.013-2.676.038-.73-.35-1.348-1.166-1.854-.72-.448-1.441-.622-2.161-.523a3.597 3.597 0 00-1.878.84l-4.33 6.972-1.631-1.013 6.331-10.194 1.142.709-.467 1.434.082.051c.596-.233 1.25-.316 1.963-.25.734.061 1.482.327 2.243.8.558.346 1.005.718 1.342 1.115.345.384.552.824.622 1.319.082.504.019 1.076-.191 1.718-.189.636-.544 1.376-1.068 2.219l-3.824 6.157-1.631-1.013zM407.903 841.044l1.631 1.013-6.331 10.194-1.631-1.013 6.331-10.194zm1.578-3.314c.194-.313.461-.514.8-.605a1.263 1.263 0 011.031.16c.326.202.533.491.62.865.096.361.047.698-.147 1.011-.194.312-.47.499-.828.559a1.438 1.438 0 01-1.026-.213c-.326-.203-.534-.473-.625-.812a1.238 1.238 0 01.175-.965zM412.655 858.121l3.583-5.77c.338-.544.602-1.029.792-1.457.213-.433.335-.828.368-1.184a1.594 1.594 0 00-.211-.979c-.16-.288-.444-.559-.852-.812-.625-.388-1.267-.523-1.925-.404a3.597 3.597 0 00-1.742.895l-4.356 7.014-1.631-1.013 6.331-10.194 1.142.709-.467 1.434.082.05a5.537 5.537 0 011.922-.275c.667.019 1.387.268 2.162.75.653.405 1.102.863 1.35 1.375.269.506.325 1.143.168 1.912a3.918 3.918 0 012.057-.446c.743.047 1.461.286 2.154.717.571.354 1.011.722 1.321 1.102.318.368.505.794.561 1.281.056.487-.035 1.042-.273 1.667-.223.633-.601 1.378-1.133 2.234l-3.799 6.117-1.631-1.013 3.812-6.137c.304-.489.538-.927.703-1.315.187-.392.278-.75.272-1.074a1.391 1.391 0 00-.262-.897c-.169-.274-.457-.538-.865-.791-.679-.423-1.328-.561-1.945-.417-.617.144-1.226.519-1.828 1.124l-4.229 6.81-1.631-1.013zM371.938 837.543l-3.583 5.77c-.338.543-.656.995-.955 1.356-.294.382-.594.667-.898.855a1.604 1.604 0 01-.971.244c-.33-.016-.698-.151-1.106-.404-.625-.388-1.03-.904-1.215-1.546a3.608 3.608 0 01.03-1.959l4.356-7.013-1.631-1.013-6.331 10.194 1.141.709 1.079-1.054.081.051a5.52 5.52 0 00.606 1.845c.312.589.855 1.125 1.63 1.606.652.405 1.263.605 1.831.6.573.017 1.169-.215 1.789-.697a3.904 3.904 0 00.512 2.041c.371.645.904 1.183 1.597 1.614.571.354 1.096.586 1.574.695.47.122.936.101 1.397-.065.461-.166.918-.494 1.373-.983.469-.482.969-1.151 1.501-2.007l3.798-6.116-1.631-1.013-3.811 6.137a9.985 9.985 0 01-.867 1.213c-.268.342-.549.582-.842.72a1.4 1.4 0 01-.921.163c-.32-.03-.685-.171-1.092-.425-.68-.422-1.092-.941-1.236-1.558-.144-.617-.079-1.33.197-2.138l4.229-6.809-1.631-1.013zM376.526 854.518l1.631 1.013 6.331-10.194-1.631-1.013-6.331 10.194zm-2.272 2.883a1.323 1.323 0 00-.188.985c.074.367.275.651.601.853.326.203.676.261 1.051.173.366-.074.646-.267.84-.58.194-.312.239-.642.135-.99a1.442 1.442 0 00-.646-.825c-.326-.202-.661-.269-1.006-.2-.33.077-.592.272-.787.584zM394.51 851.561l-3.609 5.811c-.658 1.06-1.308 1.758-1.95 2.094-.637.358-1.363.283-2.178-.223-.721-.447-1.196-1.016-1.427-1.706a3.598 3.598 0 01-.08-2.055l4.331-6.973-1.632-1.013-6.331 10.194 1.142.71 1.078-1.054.082.05c.056.638.272 1.261.646 1.871.38.631.951 1.184 1.712 1.656.557.346 1.089.582 1.595.708.497.139.983.13 1.457-.027.488-.149.973-.46 1.455-.933.488-.45.993-1.097 1.516-1.94l3.824-6.157-1.631-1.013zM393.131 864.83l1.631 1.013 6.331-10.194-1.631-1.013-6.331 10.194zm-2.271 2.884a1.314 1.314 0 00-.188.985c.074.366.274.651.6.853.326.203.676.26 1.051.173.366-.074.646-.268.84-.58.195-.313.239-.643.135-.99a1.431 1.431 0 00-.646-.825c-.326-.203-.661-.27-1.005-.201-.331.077-.593.272-.787.585zM410.544 861.519l-3.583 5.77c-.338.543-.656.996-.955 1.356-.294.382-.594.667-.898.855a1.598 1.598 0 01-.972.244c-.329-.016-.697-.15-1.105-.404-.625-.388-1.03-.903-1.215-1.546a3.598 3.598 0 01.03-1.959l4.356-7.013-1.631-1.013-6.331 10.194 1.141.709 1.079-1.054.081.051a5.52 5.52 0 00.606 1.845c.312.59.855 1.125 1.63 1.606.652.405 1.263.605 1.831.6.573.017 1.169-.215 1.789-.697a3.91 3.91 0 00.512 2.042c.371.645.904 1.182 1.597 1.613.571.355 1.096.586 1.574.695.47.123.936.101 1.397-.065.46-.166.918-.494 1.373-.983.469-.482.969-1.15 1.5-2.007l3.799-6.116-1.631-1.013-3.811 6.137a9.907 9.907 0 01-.867 1.213c-.269.342-.549.582-.842.72-.288.16-.595.215-.921.163-.32-.03-.685-.171-1.092-.424-.68-.422-1.092-.942-1.236-1.559-.144-.617-.079-1.329.197-2.137l4.229-6.81-1.631-1.013zM1197.9 397.734c.2-.257.28-.518.24-.783a2.278 2.278 0 00-.3-.809 7.026 7.026 0 00-.52-.862 5.992 5.992 0 01-.48-.926 2.552 2.552 0 01-.13-.992c.02-.342.17-.702.46-1.079.48-.617 1.01-.93 1.58-.94.58-.018 1.18.215 1.8.701.47.36.82.702 1.06 1.027.26.324.46.631.6.922l-.9.658c-.12-.247-.3-.515-.53-.803a3.95 3.95 0 00-.8-.804c-.37-.293-.7-.445-.98-.457-.27-.004-.53.152-.78.469-.17.223-.23.458-.18.706.06.24.17.498.31.774.16.274.33.561.53.862.2.307.35.624.45.951.11.334.15.681.12 1.041-.03.351-.19.719-.49 1.105-.21.274-.46.494-.74.661-.27.173-.57.272-.89.297-.32.025-.66-.025-1.01-.151-.36-.11-.72-.312-1.1-.604-.49-.38-.87-.75-1.14-1.11a4.89 4.89 0 01-.6-1.003l.99-.634c.11.264.29.567.53.907.24.341.53.637.85.89.37.286.73.45 1.09.491.35.04.67-.128.96-.505zM1203.27 394.404l1 .779.99-1.272 1.26.503-1.22 1.567 1.75 1.358-.7.9-1.75-1.358-2.76 3.559c-.35.446-.54.806-.57 1.081-.03.266.09.503.35.709.22.173.43.298.62.375.19.068.41.137.66.207l-.38.963a4.956 4.956 0 01-.96-.319c-.33-.145-.65-.34-.97-.586-.52-.406-.78-.838-.77-1.296.02-.466.3-1.046.84-1.74l2.92-3.752-1.01-.779.7-.899zM1208 398.842c.48.056.97.203 1.47.441.51.246 1 .551 1.47.917.45.347.76.683.93 1.009.18.333.26.651.25.955 0 .301-.07.584-.21.849a4.14 4.14 0 01-.46.754c-.4.514-.8 1.005-1.21 1.473-.4.468-.77.921-1.11 1.358-.25.317-.47.627-.66.929-.2.303-.35.601-.47.894l-.76-.589.43-1.109-.07-.05c-.17.06-.36.103-.57.13-.2.025-.42.021-.65-.011a3.705 3.705 0 01-.74-.221 3.558 3.558 0 01-.8-.479c-.27-.213-.5-.456-.67-.728a2.394 2.394 0 01-.32-.829c-.05-.296-.04-.595.03-.897.08-.296.23-.586.45-.868.29-.377.61-.63.96-.759a2.05 2.05 0 011.11-.104c.41.065.82.218 1.26.457.44.238.9.54 1.37.906.12.093.24.183.35.269.12.094.23.195.34.306.23-.237.42-.459.58-.664.36-.471.53-.874.48-1.209-.04-.335-.31-.696-.8-1.082a4.743 4.743 0 00-.51-.331 5.83 5.83 0 00-.58-.309c-.2-.099-.41-.182-.61-.248-.2-.068-.38-.115-.56-.14l.28-1.02zm-2.18 6.57c.24.186.48.323.72.409.24.078.46.123.67.136.22.003.42-.022.6-.075.18-.047.34-.109.47-.187l.83-1.067a5.404 5.404 0 00-.36-.302 7.255 7.255 0 00-1.18-.85 2.743 2.743 0 00-.79-.352 1.485 1.485 0 00-.73-.025c-.21.05-.41.182-.57.397-.23.299-.32.631-.26.994.07.355.27.662.6.922zM1214 402.74l1 .779.99-1.272 1.26.503-1.22 1.568 1.75 1.358-.7.899-1.75-1.358-2.76 3.559c-.35.446-.54.806-.58 1.081-.02.267.09.503.36.709.22.173.43.298.62.375.19.069.41.138.66.207l-.38.963a4.974 4.974 0 01-.97-.319c-.32-.144-.65-.34-.96-.586-.53-.406-.78-.838-.77-1.295.02-.467.3-1.047.84-1.741l2.91-3.752-1-.778.7-.9zM1218.4 413.656c.2-.257.27-.518.23-.784a2.464 2.464 0 00-.29-.809 8.723 8.723 0 00-.53-.861c-.19-.301-.35-.61-.48-.926-.11-.319-.15-.65-.13-.992.02-.343.17-.702.47-1.079.47-.617 1-.93 1.57-.94.58-.019 1.18.215 1.8.701.47.36.82.702 1.06 1.027.26.324.46.631.6.922l-.9.658c-.12-.247-.3-.515-.53-.803a3.98 3.98 0 00-.8-.805c-.37-.292-.7-.445-.98-.456-.27-.004-.53.152-.78.469-.17.222-.23.458-.17.706.06.24.16.498.3.774.16.274.33.561.53.861.2.308.35.625.45.952.11.334.15.681.12 1.04-.02.351-.19.72-.49 1.105-.21.274-.46.495-.74.661-.27.174-.57.273-.89.298a2.44 2.44 0 01-1.01-.151c-.36-.11-.72-.312-1.1-.605-.49-.379-.87-.749-1.14-1.11-.27-.36-.47-.694-.6-1.003l.99-.634c.11.265.29.567.53.908.24.34.53.637.85.89.37.286.73.45 1.09.49.35.041.67-.127.97-.504zM1192.28 404.977c-.2.257-.44.398-.7.424-.27.026-.56-.004-.86-.089-.3-.07-.63-.169-.97-.297a5.335 5.335 0 00-1.01-.232c-.34-.027-.67.011-1 .113-.32.103-.63.343-.93.72-.48.617-.65 1.203-.52 1.759.13.564.5 1.089 1.13 1.575.46.359.88.616 1.25.77.38.169.73.288 1.05.356l.41-1.038a4.674 4.674 0 01-.91-.315 4.018 4.018 0 01-.97-.573c-.38-.293-.61-.573-.69-.842-.07-.261.02-.55.26-.867.18-.223.39-.339.64-.347.25-.001.52.034.83.105.3.085.62.184.96.296.35.119.69.188 1.04.207.35.025.69-.022 1.03-.142.34-.112.66-.36.95-.746.22-.274.37-.567.46-.88.1-.307.13-.619.07-.937-.05-.317-.19-.633-.4-.947-.19-.316-.48-.62-.85-.913-.49-.38-.94-.655-1.36-.827a5.04 5.04 0 00-1.12-.335l-.37 1.113c.28.042.62.139 1.01.291.39.152.75.354 1.07.607.37.287.62.596.75.928.12.332.04.686-.25 1.063zM1190.38 411.001l1 .779-.99 1.272.8 1.094 1.22-1.567 1.74 1.357.7-.899-1.74-1.358 2.76-3.559c.35-.446.65-.719.91-.821.25-.094.51-.037.77.169.22.173.4.341.52.504.11.171.23.368.36.592l.84-.604a4.776 4.776 0 00-.55-.859 4.765 4.765 0 00-.8-.792c-.53-.406-1.01-.546-1.45-.422-.45.134-.94.547-1.48 1.241l-2.91 3.752-1.01-.778-.69.899zM1195.84 414.488c.18.45.44.888.8 1.315.36.434.78.834 1.25 1.2.44.346.85.562 1.2.649.37.093.7.094.99.004.29-.076.55-.212.77-.41.23-.192.44-.403.62-.634.4-.514.77-1.025 1.13-1.534.35-.508.7-.98 1.04-1.417.24-.317.49-.607.74-.87.24-.262.49-.487.75-.674l-.76-.589-.97.69-.06-.05a2.71 2.71 0 00-.19-1.217c-.1-.212-.23-.432-.4-.658a3.637 3.637 0 00-.66-.659c-.27-.213-.57-.37-.87-.471-.3-.094-.59-.13-.88-.109-.3.03-.59.116-.87.259-.26.149-.51.365-.73.648-.29.377-.45.749-.49 1.118-.05.377.01.744.17 1.103.16.374.41.74.75 1.1.34.375.75.745 1.22 1.111.12.093.24.183.35.27.12.093.24.177.38.253-.18.277-.34.519-.5.724-.37.471-.72.728-1.05.77-.34.042-.76-.13-1.25-.516a3.61 3.61 0 01-.45-.408c-.15-.144-.3-.307-.44-.489a3.38 3.38 0 01-.39-.531 2.238 2.238 0 01-.27-.499l-.93.521zm5.83-3.735c.24.186.43.383.58.589.13.215.23.423.29.624.06.209.09.407.08.593 0 .194-.02.362-.07.507l-.82 1.067a6.238 6.238 0 01-.39-.277c-.12-.085-.25-.174-.37-.267a8.028 8.028 0 01-.74-.66 2.825 2.825 0 01-.54-.686 1.477 1.477 0 01-.2-.694c-.01-.224.07-.442.24-.657.23-.299.53-.465.9-.495.36-.022.71.097 1.04.356zM1201.1 419.337l1.01.779-.99 1.272.8 1.094 1.21-1.567 1.75 1.358.7-.9-1.75-1.358 2.77-3.559c.35-.445.65-.719.91-.821.25-.093.5-.037.77.169.22.174.39.341.52.504.11.171.23.369.36.592l.84-.604a4.842 4.842 0 00-1.35-1.651c-.53-.406-1.01-.546-1.45-.421-.45.133-.94.547-1.48 1.241l-2.91 3.752-1.01-.779-.7.899zM1212.77 420.899c-.2.257-.44.398-.7.424-.27.026-.56-.004-.86-.089-.3-.071-.62-.17-.97-.297a5.165 5.165 0 00-1.01-.232c-.34-.027-.67.01-.99.113-.33.103-.64.343-.93.72-.48.617-.66 1.203-.53 1.758.13.565.5 1.09 1.13 1.576.46.359.88.616 1.26.77.37.169.72.288 1.04.356l.41-1.038a4.812 4.812 0 01-.91-.315 4.05 4.05 0 01-.97-.573c-.38-.293-.61-.574-.69-.842-.07-.261.02-.551.26-.868.18-.222.39-.338.64-.347.25 0 .53.035.83.105.3.086.62.185.96.297.35.119.7.187 1.04.206.35.026.7-.021 1.04-.141.33-.112.65-.36.95-.746.21-.274.36-.568.45-.881.1-.306.13-.618.07-.936-.05-.318-.19-.634-.4-.947-.19-.316-.48-.621-.85-.913-.49-.38-.94-.655-1.36-.827a4.89 4.89 0 00-1.12-.335l-.37 1.113c.28.042.62.139 1.01.291.39.152.75.354 1.07.607.37.286.62.595.75.927.12.332.04.687-.25 1.064zM40.871 101.97l-3.16-3.861a9.059 9.059 0 00-.825-.897c-.251-.251-.496-.43-.736-.538a1.173 1.173 0 00-.731-.085c-.238.043-.494.176-.767.4-.418.342-.664.756-.738 1.242-.064.478.005.952.209 1.424l3.842 4.694-1.092.894-5.584-6.824.764-.625.886.665.055-.045a4.06 4.06 0 01.265-1.402c.171-.459.516-.9 1.035-1.325.436-.357.862-.561 1.276-.612.416-.067.873.046 1.37.337a2.874 2.874 0 01.178-1.536c.21-.505.546-.948 1.01-1.327.382-.313.742-.532 1.08-.657a1.7 1.7 0 011.024-.085c.352.076.717.272 1.095.585.387.306.815.746 1.284 1.319l3.35 4.094-1.091.893-3.362-4.107a7.326 7.326 0 00-.747-.802c-.228-.223-.456-.371-.682-.444-.225-.09-.454-.1-.687-.03-.23.051-.482.19-.755.412-.455.373-.706.79-.752 1.254-.046.463.07.976.348 1.538l3.73 4.558-1.092.893zM42.667 89.95c.175-.492.448-.974.821-1.446.383-.48.824-.925 1.324-1.334.473-.387.903-.633 1.29-.736.394-.11.75-.121 1.067-.031.319.073.601.215.848.423.255.2.484.424.685.67.446.546.868 1.089 1.265 1.63.398.54.786 1.043 1.166 1.507.275.337.55.644.822.922.273.278.55.514.832.71l-.806.658-1.068-.72-.068.056c.022.194.022.407-.001.638a2.721 2.721 0 01-.169.685 3.736 3.736 0 01-1.11 1.455 3.124 3.124 0 01-.93.535c-.32.11-.639.157-.955.142a2.566 2.566 0 01-.939-.256 2.65 2.65 0 01-.809-.683c-.328-.4-.517-.8-.57-1.197a2.22 2.22 0 01.158-1.2c.166-.41.428-.813.785-1.212.359-.415.789-.828 1.29-1.237l.367-.302c.128-.104.263-.199.405-.285a9.627 9.627 0 00-.562-.77c-.41-.5-.796-.77-1.16-.806-.364-.036-.81.162-1.338.594a4.427 4.427 0 00-.471.454c-.158.16-.314.34-.468.542a4.58 4.58 0 00-.41.586c-.118.188-.212.371-.28.548l-1.01-.54zm6.416 3.887c.255-.209.456-.427.605-.654.14-.237.242-.464.306-.684.056-.228.078-.443.064-.645a1.867 1.867 0 00-.083-.547l-.927-1.133c-.135.095-.27.199-.407.31a8.132 8.132 0 00-1.181 1.035c-.241.244-.43.496-.564.759a1.58 1.58 0 00-.201.756c0 .243.094.478.28.705.261.319.59.49.99.512.39.014.764-.124 1.118-.414zM58.036 84.004c.38.463.73.883 1.053 1.257.314.366.656.701 1.027 1.005l-.737.603-1.066-.745-.054.044c.078.468.03.948-.144 1.44-.175.492-.494.928-.958 1.307-.91.745-1.822 1.013-2.737.805-.905-.216-1.857-.933-2.855-2.152-.953-1.165-1.402-2.27-1.347-3.318.056-1.064.566-1.99 1.53-2.78.337-.275.616-.472.836-.592.23-.128.492-.244.787-.348l-2.323-2.838 1.092-.894 5.896 7.206zm-1.483 3.811c.464-.38.736-.8.815-1.26.072-.468-.043-.99-.345-1.563l-2.77-3.384a1.976 1.976 0 00-.783.185c-.254.117-.553.317-.9.6-.627.513-.947 1.124-.96 1.833-.019.7.343 1.505 1.088 2.415.305.373.615.696.93.97a3.3 3.3 0 00.97.573c.324.116.65.152.98.11.331-.059.656-.218.975-.479zM56.78 78.4c.175-.491.448-.974.821-1.446.382-.48.824-.924 1.324-1.334.473-.387.903-.632 1.289-.736.395-.11.751-.12 1.068-.03.319.073.601.214.848.422.255.201.483.425.684.67.447.546.87 1.09 1.266 1.63.397.541.786 1.044 1.165 1.508.276.336.55.643.823.921.273.278.55.515.831.71l-.805.659-1.068-.721-.068.056c.022.194.022.407-.001.639a2.717 2.717 0 01-.17.685 3.733 3.733 0 01-1.11 1.456 3.123 3.123 0 01-.93.533c-.32.11-.638.157-.954.143a2.563 2.563 0 01-.94-.257 2.647 2.647 0 01-.808-.682c-.328-.4-.518-.8-.57-1.198a2.22 2.22 0 01.158-1.2c.166-.409.428-.813.785-1.212.359-.415.788-.827 1.289-1.237l.368-.301c.128-.105.262-.2.405-.286a9.651 9.651 0 00-.562-.77c-.41-.5-.797-.769-1.16-.805-.364-.037-.81.161-1.338.593a4.427 4.427 0 00-.471.454c-.158.16-.314.34-.468.542-.152.186-.289.381-.41.586-.118.189-.212.371-.28.549l-1.011-.54zm6.416 3.887c.255-.208.456-.426.604-.654a2.97 2.97 0 00.307-.683c.056-.229.077-.444.064-.645a1.871 1.871 0 00-.083-.548l-.927-1.132a7.22 7.22 0 00-.407.31 8.134 8.134 0 00-1.181 1.035c-.242.243-.43.496-.564.758a1.58 1.58 0 00-.201.757c0 .242.094.477.28.704.26.319.59.49.99.513.39.014.763-.124 1.118-.415zM72.828 75.817l-3.16-3.862a9.046 9.046 0 00-.826-.897 2.54 2.54 0 00-.735-.537 1.173 1.173 0 00-.731-.085c-.238.043-.494.176-.767.4-.418.342-.664.756-.738 1.241-.064.478.005.953.209 1.425l3.841 4.694-1.091.894-5.584-6.824.764-.625.886.665.055-.045a4.06 4.06 0 01.265-1.402c.171-.459.516-.9 1.034-1.325.437-.357.863-.561 1.277-.612.416-.067.873.046 1.37.337a2.874 2.874 0 01.178-1.536c.21-.505.546-.948 1.01-1.327.382-.313.742-.532 1.08-.657a1.7 1.7 0 011.024-.085c.352.076.717.272 1.095.585.387.306.815.746 1.284 1.319l3.35 4.094-1.092.893-3.361-4.108a7.306 7.306 0 00-.747-.8c-.228-.224-.456-.372-.683-.445-.224-.09-.453-.1-.686-.03-.23.051-.482.189-.755.412-.455.373-.706.79-.752 1.254-.046.463.07.976.348 1.538l3.73 4.558-1.092.893zM42.267 103.676l3.16 3.862c.299.364.537.693.717.986.196.296.323.571.38.828.059.256.038.501-.06.733-.09.225-.27.449-.543.673-.419.342-.873.501-1.364.477a2.64 2.64 0 01-1.355-.486l-3.841-4.694-1.092.893 5.584 6.824.764-.626-.476-1 .054-.044c.484.09.96.095 1.427.017.484-.077.985-.328 1.504-.752.436-.358.72-.735.852-1.131.148-.394.128-.864-.06-1.409.5.183 1.013.226 1.541.129a3.373 3.373 0 001.501-.728c.382-.312.668-.622.857-.929a1.7 1.7 0 00.287-.986c-.006-.36-.125-.756-.358-1.189-.223-.44-.57-.946-1.038-1.52l-3.35-4.094-1.092.894 3.361 4.107c.268.328.48.625.638.891.174.268.274.52.3.757.043.238.008.464-.105.679-.097.216-.282.435-.555.659-.454.372-.913.535-1.377.489-.463-.047-.943-.262-1.439-.645l-3.73-4.558-1.092.893zM54.405 104.293a5.099 5.099 0 001.58-.519 8.84 8.84 0 001.57-1.034c.473-.387.798-.759.976-1.118.187-.365.267-.712.242-1.041a1.986 1.986 0 00-.247-.914 4.376 4.376 0 00-.521-.804 39.178 39.178 0 00-1.348-1.563 36.478 36.478 0 01-1.247-1.44 13.688 13.688 0 01-.74-.989 5.837 5.837 0 01-.532-.955l-.805.659.495 1.19-.068.055a2.994 2.994 0 00-.627-.125 2.718 2.718 0 00-.705.03 3.735 3.735 0 00-1.646.8 3.124 3.124 0 00-.707.807c-.171.292-.28.594-.329.907-.04.322-.018.645.066.971.094.319.263.628.51.928.327.401.68.666 1.06.795.387.139.79.167 1.207.083.434-.081.882-.258 1.344-.529.478-.27.967-.61 1.468-1.02l.368-.3c.127-.105.247-.218.36-.34.25.25.465.484.644.703.41.5.596.932.56 1.296-.037.364-.319.762-.847 1.194-.154.126-.334.25-.538.372-.188.123-.396.24-.624.351a4.56 4.56 0 01-.655.286 3.204 3.204 0 01-.593.166l.329 1.098zm-2.54-7.058c.254-.209.507-.363.76-.463.26-.091.503-.146.73-.165.235-.01.45.011.646.064.204.046.377.11.52.19l.926 1.133c-.12.113-.248.226-.384.337-.12.114-.244.222-.371.327-.282.23-.575.44-.877.626a3.086 3.086 0 01-.855.404 1.581 1.581 0 01-.782.047c-.237-.049-.449-.187-.635-.415a1.33 1.33 0 01-.306-1.07c.063-.386.272-.725.627-1.015zM63.274 90.404c-.38-.464-.721-.891-1.025-1.28a8.314 8.314 0 01-.782-1.206l-.737.603.52 1.192-.054.044a2.843 2.843 0 00-1.44-.143c-.516.073-1.007.3-1.47.68-.91.744-1.354 1.586-1.33 2.524.032.93.547 2.005 1.545 3.224.953 1.164 1.948 1.823 2.985 1.977 1.054.156 2.063-.161 3.027-.95.337-.276.586-.51.747-.703.17-.2.336-.434.496-.702l2.323 2.838 1.092-.893-5.897-7.205zm-4.03.7c.464-.38.93-.563 1.396-.55.474.022.962.238 1.464.647l2.77 3.385c-.06.261-.172.505-.336.73-.165.227-.42.48-.766.764-.627.514-1.29.706-1.987.578-.69-.119-1.407-.633-2.152-1.543a7.948 7.948 0 01-.767-1.104 3.303 3.303 0 01-.37-1.065c-.05-.339-.02-.666.086-.981.123-.314.344-.6.662-.861zM68.517 92.743a5.082 5.082 0 001.581-.519 8.84 8.84 0 001.57-1.033c.472-.387.798-.76.976-1.118.187-.366.267-.713.242-1.041a1.988 1.988 0 00-.247-.915 4.381 4.381 0 00-.522-.803 39.343 39.343 0 00-1.347-1.564 36.253 36.253 0 01-1.247-1.44 13.637 13.637 0 01-.741-.989 5.838 5.838 0 01-.531-.955l-.805.659.495 1.19-.068.056a3.002 3.002 0 00-.627-.126 2.722 2.722 0 00-.705.03 3.733 3.733 0 00-1.646.8 3.12 3.12 0 00-.707.807c-.171.292-.28.594-.329.907-.04.322-.018.646.066.972.094.318.263.627.509.928.328.4.681.665 1.06.795.388.139.79.166 1.208.083a4.206 4.206 0 001.344-.53c.478-.27.967-.61 1.467-1.019l.369-.302c.127-.104.247-.217.36-.34.25.251.465.486.643.704.41.5.596.932.56 1.296-.036.364-.318.762-.846 1.194-.154.127-.334.25-.538.372-.188.124-.396.24-.624.352a4.58 4.58 0 01-.655.285c-.209.08-.406.135-.593.166l.329 1.098zm-2.54-7.058c.255-.208.508-.363.76-.463.26-.09.504-.146.731-.165.235-.01.45.012.645.065.205.045.378.108.52.19l.927 1.132c-.12.113-.248.226-.384.338a8.144 8.144 0 01-1.248.953 3.085 3.085 0 01-.855.403 1.58 1.58 0 01-.782.047c-.237-.049-.449-.187-.635-.414a1.33 1.33 0 01-.307-1.07c.064-.387.273-.725.628-1.016zM74.224 77.523l3.16 3.862c.299.364.537.693.717.986.196.296.323.571.38.828.059.256.038.5-.06.733-.09.225-.27.45-.543.672-.419.343-.873.502-1.364.478a2.645 2.645 0 01-1.355-.486l-3.842-4.694-1.091.893 5.584 6.823.764-.625-.477-1 .055-.045c.484.09.96.096 1.427.018.484-.077.985-.328 1.503-.752.437-.358.721-.735.853-1.13.148-.395.128-.865-.06-1.41.5.183 1.013.226 1.54.129a3.375 3.375 0 001.502-.728c.382-.312.668-.622.857-.929.197-.298.293-.627.287-.986-.006-.36-.125-.756-.358-1.189-.223-.44-.57-.947-1.038-1.52l-3.35-4.094-1.093.894 3.362 4.107c.268.328.48.625.638.891.174.268.274.52.3.757.043.238.008.464-.105.679-.097.215-.282.435-.555.659-.454.372-.914.535-1.377.489-.463-.047-.943-.262-1.439-.645l-3.73-4.558-1.092.893zM57.208 563.467c.175-.689.485-1.377.931-2.064.458-.698 1-1.356 1.627-1.974.592-.584 1.144-.97 1.654-1.159.522-.2 1.003-.258 1.444-.176a2.7 2.7 0 011.202.467c.371.24.709.514 1.012.822a53.8 53.8 0 011.92 2.05 48.762 48.762 0 001.768 1.897c.416.422.826.804 1.23 1.146.406.342.81.628 1.216.857l-1.008.994-1.538-.842-.086.084c.055.26.081.549.079.866-.002.294-.05.61-.143.949-.104.328-.26.671-.466 1.032a5.06 5.06 0 01-.856 1.08 4.27 4.27 0 01-1.194.84 3.46 3.46 0 01-1.275.313 3.503 3.503 0 01-1.305-.23 3.607 3.607 0 01-1.182-.823c-.495-.502-.802-1.019-.922-1.551a3.023 3.023 0 01.062-1.646c.174-.576.478-1.156.913-1.741.434-.608.964-1.221 1.591-1.839l.462-.455c.16-.157.33-.303.512-.437-.303-.376-.589-.7-.858-.974-.618-.626-1.176-.942-1.674-.945-.498-.004-1.077.32-1.738.972-.194.19-.388.415-.582.674a7.568 7.568 0 00-.566.794c-.183.27-.343.552-.48.845a4.26 4.26 0 00-.312.778l-1.438-.604zm9.183 4.462c.319-.315.564-.635.736-.962.161-.338.271-.66.33-.965.047-.317.05-.611.006-.883a2.553 2.553 0 00-.181-.731l-1.398-1.418c-.171.145-.342.303-.513.471a10.982 10.982 0 00-1.47 1.551c-.298.36-.52.726-.67 1.098-.15.35-.21.7-.178 1.051.032.328.188.635.469.92.393.399.86.589 1.404.57.532-.03 1.02-.264 1.465-.702zM79.112 557.48l-4.802-4.871a9.655 9.655 0 00-1.231-1.078c-.382-.297-.749-.486-1.099-.568a1.815 1.815 0 00-1.07.043c-.34.111-.698.351-1.074.722-.535.528-.846 1.182-.93 1.962a3.238 3.238 0 00.476 2.159l5.61 5.692-1.367 1.347-11.793-11.965 1.367-1.348 4.313 4.376.068-.067a4.617 4.617 0 01.235-1.882c.208-.632.62-1.252 1.235-1.858.479-.472.95-.825 1.416-1.059.455-.246.93-.344 1.428-.295.509.038 1.045.239 1.608.606.563.343 1.193.868 1.89 1.575l5.087 5.162-1.367 1.347zM75.035 545.896c.175-.689.486-1.377.932-2.064.457-.698 1-1.356 1.626-1.974.593-.584 1.144-.97 1.655-1.159.522-.2 1.003-.258 1.444-.176a2.7 2.7 0 011.201.467c.372.24.71.514 1.013.822a53.796 53.796 0 011.92 2.05 48.762 48.762 0 001.768 1.897c.415.422.826.804 1.23 1.146.405.342.81.628 1.216.857l-1.009.994-1.538-.842-.085.084c.055.26.08.549.078.866-.002.294-.05.61-.142.949-.104.328-.26.672-.466 1.032a5.061 5.061 0 01-.856 1.08 4.269 4.269 0 01-1.194.84c-.42.189-.846.294-1.276.313a3.483 3.483 0 01-1.305-.23 3.607 3.607 0 01-1.182-.823c-.494-.502-.801-1.019-.922-1.551a3.023 3.023 0 01.063-1.646c.174-.576.478-1.156.912-1.741.434-.608.965-1.221 1.592-1.839l.461-.455c.16-.157.33-.303.513-.437-.303-.376-.59-.7-.859-.974-.618-.626-1.175-.942-1.673-.945-.498-.004-1.077.32-1.738.972-.194.19-.388.415-.582.674a7.538 7.538 0 00-.566.794c-.183.27-.343.552-.481.845a4.26 4.26 0 00-.311.778l-1.439-.604zm9.183 4.462c.32-.315.565-.635.737-.962.16-.338.27-.66.33-.965.047-.317.05-.611.006-.883a2.55 2.55 0 00-.181-.731l-1.399-1.418c-.17.145-.341.303-.512.471-.171.146-.336.298-.496.455-.353.348-.678.713-.975 1.096-.297.36-.52.726-.67 1.098-.15.35-.209.7-.177 1.051.031.328.188.635.468.92.393.399.862.589 1.405.57.532-.03 1.02-.264 1.464-.702zM77.722 584.281c.691-.165 1.384-.466 2.077-.902.705-.447 1.37-.98 1.997-1.598.593-.584.987-1.13 1.183-1.637.207-.519.273-1 .197-1.441a2.706 2.706 0 00-.45-1.209 5.976 5.976 0 00-.806-1.024 54.118 54.118 0 00-2.023-1.949 48.881 48.881 0 01-1.87-1.796 18.4 18.4 0 01-1.129-1.247 7.91 7.91 0 01-.84-1.228l-1.008.994.82 1.551-.085.084a4.027 4.027 0 00-.865-.091 3.708 3.708 0 00-.951.129 5.099 5.099 0 00-2.13 1.291c-.366.359-.651.753-.858 1.182a3.46 3.46 0 00-.332 1.27c-.014.441.056.877.212 1.308.166.42.435.818.805 1.194.495.502 1.007.817 1.538.945.542.14 1.09.127 1.646-.039.579-.166 1.163-.461 1.755-.887a14.134 14.134 0 001.861-1.565l.462-.455c.16-.157.307-.325.445-.505.37.308.691.599.96.872.618.627.925 1.189.922 1.687-.004.498-.336 1.072-.997 1.724a6.074 6.074 0 01-.683.572 7.69 7.69 0 01-.802.554 6.292 6.292 0 01-.852.469 4.246 4.246 0 01-.783.3l.584 1.447zm-4.328-9.247c.319-.315.643-.556.972-.723a4.02 4.02 0 01.97-.315c.317-.043.611-.041.882.006.283.036.525.1.728.192l1.399 1.419c-.148.168-.308.337-.479.506a9.59 9.59 0 01-.462.488c-.353.348-.723.668-1.11.96a4.199 4.199 0 01-1.108.653 2.152 2.152 0 01-1.053.163c-.328-.037-.632-.197-.913-.482a1.812 1.812 0 01-.55-1.413c.038-.531.28-1.016.724-1.454zM84.025 562.466l4.802 4.872c.438.444.791.859 1.06 1.246.291.387.475.756.552 1.107.088.363.068.719-.059 1.069-.115.339-.361.693-.737 1.064-.536.528-1.194.828-1.975.902a3.233 3.233 0 01-2.152-.508l-5.61-5.692-1.368 1.348 11.793 11.965 1.368-1.348-4.313-4.376.068-.067a4.627 4.627 0 001.886-.207c.635-.199 1.26-.602 1.875-1.208.479-.472.838-.939 1.08-1.401a2.44 2.44 0 00.315-1.423c-.03-.51-.224-1.048-.582-1.617-.335-.568-.851-1.205-1.547-1.912l-5.088-5.162-1.368 1.348zM95.55 566.71c.69-.165 1.383-.466 2.077-.902.704-.447 1.37-.98 1.997-1.598.592-.584.987-1.129 1.183-1.637.207-.519.273-.999.197-1.441a2.697 2.697 0 00-.45-1.208 5.963 5.963 0 00-.807-1.025 54.118 54.118 0 00-2.022-1.949 49.736 49.736 0 01-1.871-1.795 18.597 18.597 0 01-1.128-1.248 7.904 7.904 0 01-.84-1.228l-1.008.994.82 1.551-.085.084a4.093 4.093 0 00-.865-.091 3.71 3.71 0 00-.952.129 5.096 5.096 0 00-2.13 1.291c-.365.359-.65.753-.857 1.182a3.46 3.46 0 00-.332 1.27 3.5 3.5 0 00.211 1.309c.167.419.436.817.806 1.193.494.502 1.007.817 1.538.945.542.14 1.09.127 1.646-.039.578-.166 1.163-.461 1.755-.887a14.12 14.12 0 001.86-1.565l.462-.455a4.7 4.7 0 00.445-.505c.371.308.692.599.961.872.618.627.925 1.189.921 1.687-.003.498-.336 1.072-.996 1.724a6.065 6.065 0 01-.683.572c-.24.19-.507.375-.802.554a6.3 6.3 0 01-.852.469 4.245 4.245 0 01-.783.3l.584 1.447zm-4.329-9.247a3.96 3.96 0 01.973-.723c.34-.156.663-.261.97-.315.317-.043.61-.041.882.006.282.036.525.1.728.192l1.398 1.419a9.857 9.857 0 01-.478.506 11.04 11.04 0 01-1.572 1.448 4.233 4.233 0 01-1.108.654 2.163 2.163 0 01-1.053.162c-.328-.037-.633-.197-.913-.482a1.811 1.811 0 01-.55-1.413c.038-.531.279-1.016.723-1.454zM794.646 896.99a97.655 97.655 0 00-1.662 1.49c-.482.445-.922.927-1.318 1.445l-.855-.974.964-1.485-.063-.072c-.632.129-1.287.086-1.965-.128-.677-.214-1.285-.628-1.824-1.242-1.055-1.202-1.462-2.431-1.222-3.685.251-1.242 1.183-2.57 2.794-3.984 1.539-1.351 3.023-2.014 4.449-1.989 1.45.027 2.734.677 3.853 1.952.39.445.672.815.846 1.11.184.306.354.658.509 1.053l3.752-3.292 1.267 1.443-9.525 8.358zm-5.254-1.839c.538.613 1.122.963 1.751 1.049.642.076 1.345-.105 2.11-.542l4.474-3.926a2.69 2.69 0 00-.288-1.056c-.171-.34-.457-.739-.858-1.196-.728-.829-1.574-1.236-2.539-1.22-.953.006-2.03.537-3.233 1.592-.493.433-.918.87-1.276 1.311-.347.454-.592.903-.734 1.347-.142.444-.177.89-.104 1.337.095.448.328.883.697 1.304zM803.271 894.884l1.267 1.443-9.02 7.915-1.266-1.443 9.019-7.915zm2.473-2.713a1.32 1.32 0 01.941-.347c.373.013.687.164.94.453.253.288.367.625.342 1.009a1.24 1.24 0 01-.434.924 1.163 1.163 0 01-.955.294 1.43 1.43 0 01-.919-.502c-.254-.288-.375-.608-.363-.959.022-.338.171-.629.448-.872zM807.4 911.523a97.44 97.44 0 00-1.662 1.491c-.482.444-.922.926-1.319 1.444l-.854-.974.964-1.485-.064-.072c-.632.129-1.286.086-1.964-.128-.678-.214-1.286-.628-1.824-1.241-1.055-1.203-1.463-2.431-1.222-3.685.251-1.242 1.182-2.571 2.794-3.985 1.539-1.351 3.022-2.013 4.449-1.988 1.45.026 2.734.677 3.852 1.951.391.445.673.815.846 1.11.185.307.354.658.51 1.054l3.752-3.293 1.267 1.443-9.525 8.358zm-5.254-1.839c.538.614 1.122.963 1.751 1.05.641.076 1.345-.105 2.11-.543l4.474-3.926a2.706 2.706 0 00-.288-1.056c-.171-.34-.457-.738-.858-1.195-.728-.83-1.574-1.237-2.539-1.22-.953.006-2.031.536-3.233 1.592-.493.432-.919.869-1.276 1.311-.347.453-.592.902-.734 1.347a2.817 2.817 0 00-.104 1.336c.095.449.327.883.697 1.304zM782.428 907.712a95.613 95.613 0 011.693-1.454c.504-.42 1.038-.794 1.604-1.12l-.855-.974-1.597.763-.064-.072c.21-.61.253-1.265.128-1.964-.124-.7-.455-1.356-.994-1.97-1.055-1.202-2.22-1.766-3.495-1.69-1.264.087-2.702.838-4.313 2.252-1.54 1.351-2.39 2.736-2.55 4.154-.162 1.44.316 2.798 1.435 4.073.39.445.721.772.99.983.281.222.607.436.979.642l-3.752 3.293 1.266 1.443 9.525-8.359zm-1.142-5.448c.539.613.81 1.237.814 1.873-.008.645-.279 1.319-.812 2.021l-4.474 3.926a2.67 2.67 0 01-1.01-.423c-.315-.213-.673-.548-1.074-1.005-.728-.83-1.021-1.722-.88-2.677.13-.943.796-1.943 1.999-2.998a10.72 10.72 0 011.466-1.095c.494-.285.971-.47 1.43-.553.459-.084.905-.06 1.339.07.432.153.833.44 1.202.861zM779.219 915.991l1.267 1.443 9.019-7.915-1.266-1.443-9.02 7.915zm-3.011 2.099a1.321 1.321 0 00-.466.888c-.035.372.073.702.327.991.253.289.571.445.955.47.372.036.696-.067.973-.31s.415-.546.416-.908a1.435 1.435 0 00-.378-.977 1.353 1.353 0 00-.904-.485c-.339-.022-.646.089-.923.331zM795.181 922.246a95.446 95.446 0 011.694-1.454 11.273 11.273 0 011.604-1.12l-.855-.974-1.598.763-.063-.072c.21-.61.253-1.265.128-1.965-.124-.7-.456-1.356-.994-1.969-1.055-1.203-2.22-1.766-3.495-1.691-1.264.088-2.702.839-4.314 2.253-1.539 1.351-2.389 2.735-2.549 4.153-.162 1.441.316 2.799 1.435 4.073.39.445.72.773.99.983.28.223.606.437.979.642l-3.753 3.293 1.267 1.443 9.524-8.358zm-1.141-5.449c.538.614.81 1.238.813 1.873-.008.646-.278 1.32-.812 2.022l-4.473 3.926a2.696 2.696 0 01-1.01-.423c-.315-.214-.673-.549-1.074-1.006-.728-.83-1.022-1.722-.88-2.676.13-.944.796-1.944 1.998-2.999a10.78 10.78 0 011.466-1.095c.495-.285.972-.469 1.431-.553.459-.083.905-.06 1.339.071.432.152.833.439 1.202.86zM1292.42 756.692l7.09 2.527 2.13 1.063.03-.037-1.47-1.889-3.84-6.185 1.2-1.375 6.59 11.101-.61.705-8.04-2.837-1.78-.95-.05.054 1.19 1.671 3.96 7.47-.62.705-11.98-4.915 1.37-1.574 6.82 2.801 2.03 1.223.01-.018-1.41-1.996-3.54-6.495.92-1.049zM1302.82 753.898c-1.53-1.336-2.41-2.694-2.63-4.074-.22-1.402.23-2.743 1.34-4.021.59-.675 1.22-1.16 1.88-1.454a4.085 4.085 0 012.05-.412c.69.032 1.4.227 2.13.586.71.348 1.43.832 2.14 1.453 1.53 1.336 2.4 2.705 2.63 4.107.21 1.38-.23 2.709-1.35 3.987-.59.676-1.21 1.172-1.87 1.489-.66.294-1.34.425-2.03.393-.71-.042-1.42-.238-2.13-.586-.73-.358-1.45-.848-2.16-1.468zm1.31-1.502c.46.4.93.742 1.43 1.026.5.271 1 .447 1.48.528.48.08.96.048 1.42-.097.47-.145.9-.441 1.28-.887 1.45-1.629 1.01-3.459-1.32-5.489-.47-.41-.96-.751-1.47-1.023a4.368 4.368 0 00-1.46-.546 2.849 2.849 0 00-1.41.113c-.46.145-.89.441-1.28.887-1.44 1.629-1 3.458 1.33 5.488zM1312.14 734.085l7.09 2.527 2.13 1.063.04-.037-1.48-1.889-3.84-6.185 1.2-1.375 6.59 11.101-.61.705-8.04-2.837-1.78-.95-.05.054 1.19 1.671 3.96 7.47-.61.705-11.99-4.915 1.37-1.574 6.83 2.801 2.02 1.223.01-.018-1.41-1.996-3.54-6.495.92-1.049zM1315.78 777.071l-3.47-6.687-1.34-1.967.03-.036 2.07 1.203 6.65 2.965 1.2-1.374-11.89-5.024-.62.705 3.91 7.576 1.18 1.637-.05.055-1.82-.948-7.93-2.912-.62.705 6.5 11.209 1.37-1.573-3.7-6.382-1.49-1.837.02-.019 2.17 1.128 6.91 2.625.92-1.049zM1317.14 766.388c1.53 1.335 2.99 2.018 4.39 2.048 1.42.027 2.68-.598 3.8-1.876.59-.675.98-1.359 1.19-2.054.22-.695.26-1.39.13-2.084-.13-.683-.42-1.361-.87-2.033a10.16 10.16 0 00-1.73-1.923c-1.54-1.336-3.01-2.018-4.43-2.046-1.4-.029-2.65.595-3.77 1.873-.59.675-.99 1.361-1.22 2.057-.2.694-.24 1.383-.11 2.066.13.693.42 1.371.87 2.033.45.672 1.03 1.318 1.75 1.939zm1.3-1.502a9.427 9.427 0 01-1.21-1.278c-.33-.464-.57-.93-.72-1.396a3.114 3.114 0 01-.1-1.422c.08-.482.32-.946.71-1.392 1.42-1.651 3.29-1.461 5.62.569.47.41.87.848 1.21 1.312.35.453.59.912.74 1.379.14.466.17.935.08 1.406-.08.482-.32.946-.71 1.392-1.42 1.65-3.29 1.46-5.62-.57zM1335.5 754.464l-3.47-6.687-1.34-1.967.03-.036 2.07 1.203 6.65 2.965 1.2-1.374-11.89-5.024-.62.705 3.91 7.576 1.18 1.637-.05.055-1.81-.948-7.94-2.912-.62.705 6.5 11.209 1.37-1.573-3.7-6.382-1.49-1.838.02-.018 2.17 1.128 6.91 2.625.92-1.049zM1258.88 901.287l-.85.709 3.47 4.141-1.48 1.232-10.78-12.882 1.47-1.232 6.56 7.839.54-.889-.41-6.289 1.71-1.433.28 6.056-.24 1.239 1.53-.034 6.56 1.586-1.82 1.525-6.54-1.568zM1261.55 891.6a6.91 6.91 0 011.09-1.982c.52-.658 1.11-1.27 1.79-1.835.63-.534 1.22-.874 1.74-1.021.54-.157 1.02-.176 1.45-.059.44.096.82.283 1.16.563.35.27.67.57.94.902.62.736 1.2 1.469 1.75 2.199.55.73 1.09 1.408 1.61 2.034.38.453.76.867 1.13 1.242.38.374.76.691 1.15.953l-1.09.909-1.46-.965-.1.077c.04.264.04.554.01.87-.02.293-.1.604-.22.934-.13.318-.31.648-.55.991-.23.343-.54.678-.94 1.007-.39.329-.81.575-1.25.74-.44.155-.87.224-1.3.209a3.462 3.462 0 01-1.28-.335c-.4-.206-.78-.512-1.11-.916-.46-.54-.72-1.08-.8-1.621a2.979 2.979 0 01.2-1.635c.22-.56.57-1.114 1.05-1.662.48-.571 1.06-1.138 1.73-1.703.18-.144.34-.283.5-.416.17-.144.35-.276.55-.395-.27-.399-.53-.745-.78-1.04-.56-.675-1.09-1.034-1.59-1.078-.5-.044-1.1.232-1.81.828-.21.174-.42.383-.64.625-.21.22-.42.468-.62.745-.21.255-.39.522-.55.803-.16.259-.29.509-.38.751l-1.38-.719zm8.79 5.192c.34-.288.61-.588.81-.899.19-.324.33-.636.41-.935.07-.312.1-.605.08-.879a2.668 2.668 0 00-.12-.744l-1.28-1.527c-.19.131-.37.274-.55.428a10.3 10.3 0 00-1.59 1.426c-.33.335-.58.682-.76 1.041-.18.336-.27.681-.26 1.033 0 .33.13.648.39.955.36.429.81.656 1.35.682.54.013 1.04-.181 1.52-.581zM1277.95 886.851l2 1.335.09-.077-1.09-2.124-3.19-7.438 1.49-1.248 4.19 10.543c.3.775.58 1.533.84 2.272.28.728.48 1.416.6 2.063.13.647.14 1.228.05 1.742-.08.527-.32.96-.73 1.299-.44.37-.85.611-1.24.725l-.8-1.486c.21-.072.39-.17.53-.293.35-.287.53-.749.54-1.384.02-.623-.24-1.463-.77-2.521l-11.4-6.105 1.69-1.417 7.2 4.114zM1279.25 876.781c.23-.673.6-1.333 1.1-1.982.51-.658 1.1-1.27 1.78-1.835.64-.534 1.22-.875 1.74-1.021.54-.157 1.02-.177 1.45-.059.44.096.83.283 1.16.563.35.27.67.57.95.901.61.736 1.2 1.47 1.74 2.2.55.73 1.09 1.408 1.61 2.033.38.454.76.868 1.14 1.242.37.374.75.692 1.14.953l-1.09.909-1.46-.964-.09.077c.03.264.03.554 0 .869-.02.293-.1.605-.22.935a5.6 5.6 0 01-.54.991c-.24.342-.55.678-.94 1.007-.4.328-.82.575-1.26.74-.44.155-.87.224-1.3.209-.44-.028-.87-.14-1.28-.335-.4-.206-.77-.512-1.11-.917-.45-.539-.72-1.08-.8-1.62a3.078 3.078 0 01.2-1.636c.22-.559.57-1.113 1.05-1.661a13.64 13.64 0 011.74-1.703c.17-.144.33-.283.49-.416.17-.144.36-.276.55-.395-.27-.399-.53-.746-.78-1.04-.56-.675-1.09-1.034-1.59-1.078-.49-.044-1.1.232-1.81.828-.21.174-.42.383-.63.625-.22.219-.43.468-.63.745-.21.254-.39.522-.55.803a3.64 3.64 0 00-.37.751l-1.39-.719zm8.79 5.192c.35-.288.62-.588.81-.9.19-.324.33-.635.41-.935.07-.311.1-.604.08-.879a2.667 2.667 0 00-.12-.743l-1.28-1.527a8.92 8.92 0 00-.55.428 10.3 10.3 0 00-1.59 1.426c-.33.335-.58.682-.76 1.041-.18.336-.26.68-.26 1.033 0 .329.13.648.39.954.36.43.81.657 1.36.683.53.013 1.03-.181 1.51-.581zM1294.51 871.453l-.84.709 3.46 4.141-1.47 1.232-10.78-12.882 1.47-1.232 6.56 7.839.54-.889-.41-6.289 1.71-1.433.28 6.056-.25 1.239 1.54-.034 6.55 1.586-1.82 1.525-6.54-1.568zM1274.8 920.303l-.85.709-3.47-4.141-1.47 1.233 10.78 12.882 1.48-1.233-6.57-7.839.97-.374 6.12 1.513 1.71-1.433-5.91-1.341-1.26.024.3-1.506-.41-6.732-1.82 1.525.4 6.713zM1284.8 919.376c.7-.108 1.42-.352 2.15-.73.73-.389 1.44-.866 2.12-1.431.63-.534 1.07-1.046 1.31-1.536.25-.501.35-.974.31-1.421a2.683 2.683 0 00-.35-1.24c-.2-.393-.44-.755-.72-1.087a58.46 58.46 0 00-1.86-2.106 57.687 57.687 0 01-1.72-1.942 17.86 17.86 0 01-1.02-1.334c-.3-.436-.55-.866-.74-1.292l-1.08.909.69 1.612-.09.077a4.11 4.11 0 00-.86-.161 3.731 3.731 0 00-.96.051c-.33.072-.69.194-1.07.365-.38.171-.76.421-1.16.749a4.28 4.28 0 00-.95 1.109c-.22.4-.37.813-.43 1.239-.05.439-.02.879.1 1.321.14.432.37.85.71 1.255.45.54.94.896 1.46 1.066.53.184 1.07.215 1.64.095.59-.118 1.2-.365 1.82-.742.65-.374 1.31-.843 1.98-1.408.18-.144.34-.283.5-.416.17-.144.33-.3.49-.468.34.337.64.653.88.947.57.675.83 1.26.78 1.756-.04.496-.42 1.042-1.13 1.637-.21.175-.45.347-.73.515-.25.171-.53.333-.84.488-.29.156-.58.289-.89.398-.28.111-.55.19-.8.235l.46 1.49zm-3.56-9.567a3.77 3.77 0 011.03-.642c.35-.128.68-.206.99-.236.32-.017.61.009.88.078.28.059.51.142.71.251l1.28 1.527c-.17.156-.34.311-.52.465-.16.156-.33.306-.5.45-.38.318-.78.607-1.19.866-.38.261-.77.448-1.15.562-.37.115-.72.141-1.07.076-.32-.063-.61-.247-.87-.554a1.81 1.81 0 01-.43-1.453c.08-.526.36-.99.84-1.39zM1292.36 904.063l-.96-2.198.09-.077 1.9 1.446 6.76 4.45 1.49-1.248-9.64-5.982c-.71-.427-1.41-.835-2.09-1.225-.67-.4-1.31-.718-1.92-.954-.62-.237-1.19-.355-1.71-.356-.53-.013-1 .15-1.41.489-.44.369-.75.734-.93 1.093l1.32 1.054c.11-.195.24-.354.39-.477.34-.288.82-.381 1.45-.28.62.089 1.4.487 2.35 1.196l4 12.298 1.7-1.417-2.79-7.812zM1302.5 904.556c.71-.108 1.42-.351 2.15-.73.74-.388 1.44-.865 2.12-1.43.63-.534 1.07-1.046 1.31-1.536.25-.501.35-.974.31-1.421a2.69 2.69 0 00-.35-1.241c-.2-.392-.44-.754-.72-1.086a50.797 50.797 0 00-1.86-2.107 56.721 56.721 0 01-1.72-1.941c-.38-.454-.72-.899-1.02-1.334a8.22 8.22 0 01-.74-1.292l-1.08.909.69 1.611-.09.077a4.176 4.176 0 00-.86-.161 3.735 3.735 0 00-.96.052c-.33.072-.69.194-1.07.365-.38.171-.76.42-1.15.749-.4.329-.71.698-.95 1.108-.23.4-.38.814-.44 1.24-.05.438-.01.879.11 1.321.13.432.36.85.7 1.255.45.54.94.895 1.46 1.066.53.183 1.08.215 1.64.095.59-.118 1.2-.365 1.82-.742.65-.374 1.31-.844 1.99-1.408.17-.144.33-.283.49-.416.17-.144.34-.3.49-.469.34.338.64.653.88.948.57.675.83 1.26.79 1.756-.05.496-.43 1.041-1.14 1.637-.21.175-.45.346-.72.515-.26.171-.54.333-.85.487-.29.157-.58.29-.89.399-.28.111-.55.19-.8.235l.46 1.489zm-3.56-9.567c.34-.287.69-.501 1.03-.641.35-.128.68-.207.99-.236.32-.017.61.009.88.078.28.059.51.142.71.25l1.28 1.528c-.16.156-.34.311-.52.465-.16.156-.33.306-.5.45-.38.318-.78.607-1.19.866-.38.261-.77.448-1.15.562-.36.115-.72.141-1.07.076-.32-.063-.61-.248-.87-.554a1.81 1.81 0 01-.43-1.453c.08-.526.36-.99.84-1.391zM1310.43 890.469l-.84.709-3.47-4.14-1.47 1.232 10.78 12.882 1.47-1.233-6.56-7.839.97-.374 6.12 1.513 1.71-1.432-5.91-1.342-1.26.024.3-1.506-.41-6.732-1.82 1.525.39 6.713z" fill="#084177" fill-opacity=".26"/></svg>